<svg xmlns="http://www.w3.org/2000/svg" width="415.984" height="79.624" viewBox="0 0 415.984 79.624">
  <g id="Grupo_798" data-name="Grupo 798" transform="translate(-446.333 -731.887)">
    <g id="Grupo_766" data-name="Grupo 766" transform="translate(446.333 741.298)">
      <g id="Grupo_765" data-name="Grupo 765" transform="translate(0 0)">
        <path id="Caminho_24810" data-name="Caminho 24810" d="M493.369,778.421a22.226,22.226,0,0,0-6.13-4.3,15.784,15.784,0,0,0-6.589-1.418A11.616,11.616,0,0,0,472,776.023a12,12,0,0,0-3.274,8.819,11.783,11.783,0,0,0,3.128,8.59,11.161,11.161,0,0,0,8.382,3.211,16.765,16.765,0,0,0,6.442-1.355,32.734,32.734,0,0,0,7.151-4.316l-.709,22.976a40.338,40.338,0,0,1-7.172,2.189,35.92,35.92,0,0,1-7.172.73,36.329,36.329,0,0,1-8.59-1,30.122,30.122,0,0,1-7.464-2.836,32.6,32.6,0,0,1-12.239-11.8,31.982,31.982,0,0,1-4.149-16.388,33.552,33.552,0,0,1,2.356-12.676,30.7,30.7,0,0,1,17.389-17.118,35.585,35.585,0,0,1,12.947-2.314,34.679,34.679,0,0,1,14.344,3.086Z" transform="translate(-446.333 -752.735)" fill="#643d8f"/>
        <path id="Caminho_24811" data-name="Caminho 24811" d="M562.506,817.015V755.968h21.975v41.24h21.35v19.807Z" transform="translate(-510.066 -754.509)" fill="#643d8f"/>
        <path id="Caminho_24812" data-name="Caminho 24812" d="M664.823,817.015V755.968h22.309v61.047Z" transform="translate(-566.197 -754.509)" fill="#643d8f"/>
        <path id="Caminho_24813" data-name="Caminho 24813" d="M773.345,778.421a22.226,22.226,0,0,0-6.13-4.3,15.783,15.783,0,0,0-6.589-1.418,11.616,11.616,0,0,0-8.652,3.315,12,12,0,0,0-3.273,8.819,11.783,11.783,0,0,0,3.127,8.59,11.162,11.162,0,0,0,8.382,3.211,16.764,16.764,0,0,0,6.442-1.355,32.73,32.73,0,0,0,7.151-4.316l-.709,22.976a40.339,40.339,0,0,1-7.172,2.189,35.918,35.918,0,0,1-7.172.73,36.33,36.33,0,0,1-8.59-1,30.129,30.129,0,0,1-7.464-2.836,32.6,32.6,0,0,1-12.239-11.8,31.981,31.981,0,0,1-4.149-16.388,33.55,33.55,0,0,1,2.356-12.676,30.7,30.7,0,0,1,17.389-17.118A35.585,35.585,0,0,1,759,752.735a34.679,34.679,0,0,1,14.344,3.086Z" transform="translate(-599.928 -752.735)" fill="#643d8f"/>
        <path id="Caminho_24814" data-name="Caminho 24814" d="M842.482,817.015V755.968H864v26.02l13.927-26.02h24.853l-18.431,30.065,21.016,30.982H878.8L864,791.5v25.52Z" transform="translate(-663.661 -754.509)" fill="#643d8f"/>
      </g>
    </g>
    <g id="Grupo_767" data-name="Grupo 767" transform="translate(692.817 731.887)">
      <path id="Caminho_24815" data-name="Caminho 24815" d="M1142.235,803.764l-14.819-25.547v25.547h-21.54V742.652h21.54V768.7l13.942-26.048h20.521V737.3a5.433,5.433,0,0,0-5.417-5.417H997.8a5.433,5.433,0,0,0-5.417,5.417v5.348H1034.9v19.995h-12.23v41.117h-21.957V762.647h-8.338v43.447a5.433,5.433,0,0,0,5.417,5.417h158.666a5.433,5.433,0,0,0,5.417-5.417v-2.33Zm-43.688-17.929a31.092,31.092,0,0,1-6.971,10.332,31.938,31.938,0,0,1-10.582,6.846,35.531,35.531,0,0,1-25.567,0,31.8,31.8,0,0,1-10.6-6.93,29.59,29.59,0,0,1-6.887-10.185,35.052,35.052,0,0,1,0-25.171,29.506,29.506,0,0,1,6.887-10.227,31.394,31.394,0,0,1,10.561-6.867,36.222,36.222,0,0,1,25.714,0,31.852,31.852,0,0,1,10.6,6.867,30.493,30.493,0,0,1,6.867,10.269,33.058,33.058,0,0,1,2.358,12.565A32.526,32.526,0,0,1,1098.547,785.835Z" transform="translate(-992.379 -731.887)" fill="#ef539f"/>
      <path id="Caminho_24816" data-name="Caminho 24816" d="M1147.908,797.9a9.487,9.487,0,0,0-7.472,3.214,12.268,12.268,0,0,0-2.839,8.432,12.03,12.03,0,0,0,2.839,8.37,10.409,10.409,0,0,0,14.923,0,12.087,12.087,0,0,0,2.818-8.37,12.31,12.31,0,0,0-2.818-8.453A9.452,9.452,0,0,0,1147.908,797.9Z" transform="translate(-1072.046 -768.104)" fill="#ef539f"/>
      <path id="Caminho_24817" data-name="Caminho 24817" d="M1350.752,815.247V771.485l-14.092,22.987Z" transform="translate(-1181.252 -753.611)" fill="#ef539f"/>
    </g>
  </g>
</svg>
