<svg xmlns="http://www.w3.org/2000/svg" width="46.053" height="46.052" viewBox="0 0 46.053 46.052">
  <g id="Grupo_1360" data-name="Grupo 1360" transform="translate(-257.928 -92)">
    <g id="XMLID_1210_" transform="translate(257.928 92)">
      <g id="XMLID_171_" transform="translate(0 0)">
        <path id="XMLID_349_" d="M55.2,149.873H48.9a.9.9,0,0,0-.9.9v4.317a.9.9,0,0,0,.9.9h6.3a.9.9,0,0,0,.9-.9v-4.317A.9.9,0,0,0,55.2,149.873Zm-.9,4.317H49.8v-2.518h4.5Z" transform="translate(-43.683 -136.393)"/>
        <path id="XMLID_1199_" d="M176.254,149.873H166.9a.9.9,0,0,0,0,1.8h9.354a.9.9,0,0,0,0-1.8Z" transform="translate(-151.069 -136.393)"/>
        <path id="XMLID_1203_" d="M176.254,197.873H166.9a.9.9,0,1,0,0,1.8h9.354a.9.9,0,1,0,0-1.8Z" transform="translate(-151.069 -180.075)"/>
        <path id="XMLID_1507_" d="M229.2,342.127h-6.3a.9.9,0,0,0-.9.9v4.317a.9.9,0,0,0,.9.9h6.3a.9.9,0,0,0,.9-.9v-4.317A.9.9,0,0,0,229.2,342.127Zm-.9,4.317h-4.5v-2.519h4.5Z" transform="translate(-202.032 -311.354)"/>
        <path id="XMLID_1508_" d="M340,343.026a.9.9,0,0,0,.9.9h9.354a.9.9,0,1,0,0-1.8H340.9A.9.9,0,0,0,340,343.026Z" transform="translate(-309.418 -311.354)"/>
        <path id="XMLID_1513_" d="M350.254,390.127H340.9a.9.9,0,0,0,0,1.8h9.354a.9.9,0,0,0,0-1.8Z" transform="translate(-309.418 -355.037)"/>
        <path id="XMLID_1610_" d="M45.153,26.455h-6.3V20.6a.9.9,0,0,0-1.8,0v5.852H16.55a.9.9,0,0,0-.9.9V40.319a.9.9,0,0,0,.9.9H37.058v3.035H8.995V23.926H29.5a.9.9,0,0,0,.9-.9V10.063a.9.9,0,0,0-.9-.9H8.995V6.656H37.058v5.852a.9.9,0,0,0,1.8,0V.9a.9.9,0,0,0-.9-.9H8.1a.9.9,0,0,0-.9.9V9.163H.9a.9.9,0,0,0-.9.9V23.026a.9.9,0,0,0,.9.9H7.2V45.153a.9.9,0,0,0,.9.9H37.957a.9.9,0,0,0,.9-.9V41.218h6.3a.9.9,0,0,0,.9-.9V27.355A.9.9,0,0,0,45.153,26.455Zm-8.1-21.6H31.751V1.8h5.307ZM29.952,1.8V4.857H8.995V1.8ZM1.8,10.962H28.6V22.127H1.8ZM44.254,39.419H17.45V28.254h26.8Z" transform="translate(0 0)"/>
        <path id="XMLID_1632_" d="M412.9,173.94a.9.9,0,1,0,.636.264A.9.9,0,0,0,412.9,173.94Z" transform="translate(-374.942 -158.295)"/>
      </g>
    </g>
  </g>
</svg>
