<svg id="Grupo_1408" data-name="Grupo 1408" xmlns="http://www.w3.org/2000/svg" width="57.217" height="57.217" viewBox="0 0 57.217 57.217">
  <g id="Grupo_1398" data-name="Grupo 1398">
    <path id="Caminho_24723" data-name="Caminho 24723" d="M409.447,366.012h-4.358c.011-.014.021-.027.031-.042s-.011-.017-.019-.017a1.522,1.522,0,0,0-.215-.045,27.112,27.112,0,0,1-9.42-2.46,28.288,28.288,0,0,1-16.075-19.64,24.457,24.457,0,0,1-.629-4.021c-.006-.073.046-.194-.1-.2v-4.358c.014.01.028.021.042.03a.04.04,0,0,0,.018-.02,1.987,1.987,0,0,0,.045-.244,27.71,27.71,0,0,1,1.588-7.28,28.577,28.577,0,0,1,20.511-18.188,27.061,27.061,0,0,1,4.021-.627c.073-.005.2.048.205-.1h4.358a.364.364,0,0,0-.031.042s.012.016.019.018a1.729,1.729,0,0,0,.216.044,26.713,26.713,0,0,1,8.86,2.207,28.3,28.3,0,0,1,16.639,19.922,24.785,24.785,0,0,1,.625,3.993c0,.07-.06.2.1.2v4.358a.327.327,0,0,0-.041-.032.033.033,0,0,0-.018.019,1.873,1.873,0,0,0-.046.243,25.7,25.7,0,0,1-.42,3.039,28.634,28.634,0,0,1-21.735,22.443,27.064,27.064,0,0,1-3.967.615C409.577,365.915,409.455,365.863,409.447,366.012Zm-16.2-19.689c.11.031.2.056.288.079,1.892.479,3.785.962,5.679,1.434.2.05.247.107.193.318-.394,1.54-.764,3.086-1.159,4.625-.059.23.009.283.209.33.851.2,1.7.406,2.544.634.239.065.3,0,.349-.217.366-1.509.749-3.013,1.116-4.522.053-.217.125-.273.353-.207.633.183,1.273.347,1.916.5.209.049.266.108.209.332-.387,1.5-.755,3.012-1.138,4.516-.053.209-.028.3.2.354q1.293.3,2.573.636c.206.054.267.017.318-.187.372-1.527.765-3.048,1.134-4.575.059-.246.136-.3.389-.254a16.818,16.818,0,0,0,5.163.307,6.148,6.148,0,0,0,3.757-1.722,7.875,7.875,0,0,0,1.942-3.713,5.767,5.767,0,0,0-.03-3.437,5.578,5.578,0,0,0-2.671-2.926.925.925,0,0,1-.318-.2c.034-.084.111-.067.17-.083a4.633,4.633,0,0,0,1.856-.93,5.716,5.716,0,0,0,1.786-5.475,4.961,4.961,0,0,0-2.144-3.187,13.415,13.415,0,0,0-3.72-1.88c-.243-.086-.274-.187-.215-.418.384-1.5.747-3,1.13-4.491.06-.228,0-.306-.216-.357-.833-.2-1.664-.4-2.49-.622-.252-.067-.344-.023-.408.24-.347,1.455-.72,2.906-1.072,4.361-.054.223-.132.269-.354.211-.638-.168-1.282-.32-1.928-.452-.238-.048-.262-.136-.206-.351.376-1.467.73-2.941,1.114-4.407.067-.257-.008-.316-.231-.369q-1.263-.3-2.518-.628c-.214-.056-.293-.023-.349.21-.362,1.51-.748,3.013-1.116,4.522-.051.213-.126.295-.352.226-.266-.082-.542-.129-.813-.2-1.615-.4-3.23-.808-4.842-1.22-.217-.055-.323-.043-.38.215-.175.779-.383,1.552-.576,2.328-.173.69-.17.682.517.847a12.664,12.664,0,0,1,2.014.558,1.528,1.528,0,0,1,.925,1.87q-1.663,6.685-3.333,13.369c-.231.925-.682,1.217-1.613,1.017-.627-.135-1.248-.3-1.866-.472-.208-.058-.3-.012-.371.185-.107.287-.241.563-.363.845Z" transform="translate(-378.659 -308.795)" fill="#f6921a"/>
    <path id="Caminho_24724" data-name="Caminho 24724" d="M409.519,346.429a18.432,18.432,0,0,1-4.235-.66c-.388-.1-.771-.215-1.16-.3-.2-.042-.232-.116-.185-.3q.656-2.579,1.3-5.164c.1-.4.206-.792.294-1.191.033-.154.094-.2.246-.168a24.011,24.011,0,0,1,5.161,1.572,6.45,6.45,0,0,1,1.733,1.205,2.871,2.871,0,0,1-1.22,4.765A6.757,6.757,0,0,1,409.519,346.429Z" transform="translate(-378.996 -309.193)" fill="#f6921a"/>
    <path id="Caminho_24725" data-name="Caminho 24725" d="M411.049,336.2a17.094,17.094,0,0,1-4.217-.722c-.437-.116-.434-.118-.328-.55q.681-2.732,1.362-5.466c.029-.119.008-.283.243-.23a20.866,20.866,0,0,1,3.876,1.127,4.906,4.906,0,0,1,1.919,1.357,2.71,2.71,0,0,1-1.228,4.238A5.19,5.19,0,0,1,411.049,336.2Z" transform="translate(-379.029 -309.067)" fill="#f6921a"/>
  </g>
</svg>
