<svg id="Grupo_1401" data-name="Grupo 1401" xmlns="http://www.w3.org/2000/svg" width="43.314" height="43.291" viewBox="0 0 43.314 43.291">
  <g id="Line" transform="translate(0 0)">
    <path id="Caminho_25261" data-name="Caminho 25261" d="M31.616,18.778l-7.1-4.1a1.246,1.246,0,0,0-1.2,0l-7.1,4.1a1.2,1.2,0,0,0-.584,1.026v8.2a1.2,1.2,0,0,0,.584,1.026l7.1,4.1a1.215,1.215,0,0,0,1.2,0l7.1-4.1a1.2,1.2,0,0,0,.584-1.026V19.8A1.2,1.2,0,0,0,31.616,18.778Zm-7.7-1.7L28.65,19.8l-4.733,2.729L19.184,19.8ZM18,21.807l4.733,2.729v5.522L18,27.329Zm7.1,8.2V24.584l4.733-2.729v5.475Zm20.51-6.153a3.566,3.566,0,0,0-2.761-3.392,19.106,19.106,0,0,0-3.155-7.557,3.516,3.516,0,0,0-.521-4.339,3.645,3.645,0,0,0-4.212-.442,19.106,19.106,0,0,0-7.589-3.155,3.534,3.534,0,0,0-6.847,0,19.169,19.169,0,0,0-7.652,3.155,3.629,3.629,0,0,0-4.323.521,3.487,3.487,0,0,0-1.041,2.509,3.518,3.518,0,0,0,.631,1.7,19.106,19.106,0,0,0-3.155,7.557,3.534,3.534,0,0,0,0,6.863A19.106,19.106,0,0,0,8.14,34.949a3.534,3.534,0,0,0,3.029,5.38,3.566,3.566,0,0,0,1.7-.568,18.933,18.933,0,0,0,7.573,3.155,3.534,3.534,0,0,0,6.863,0,19.106,19.106,0,0,0,7.557-3.155,3.534,3.534,0,0,0,5.38-3.029,3.566,3.566,0,0,0-.473-1.783,18.933,18.933,0,0,0,3.155-7.573,3.534,3.534,0,0,0,2.682-3.471ZM34.235,34.176a3.581,3.581,0,0,0-1.041,2.509,3.439,3.439,0,0,0,.221,1.2A16.882,16.882,0,0,1,27.1,40.5a3.518,3.518,0,0,0-6.405,0,16.661,16.661,0,0,1-6.311-2.635,3.282,3.282,0,0,0,.221-1.183,3.581,3.581,0,0,0-1.041-2.509,3.645,3.645,0,0,0-3.66-.8,17.1,17.1,0,0,1-2.635-6.311,3.534,3.534,0,0,0,0-6.39A16.629,16.629,0,0,1,9.891,14.36a3.534,3.534,0,0,0,4.733-3.345,3.471,3.471,0,0,0-.174-1.089,16.661,16.661,0,0,1,6.311-2.635,3.518,3.518,0,0,0,6.39,0,16.881,16.881,0,0,1,6.311,2.619,3.439,3.439,0,0,0-.221,1.2,3.55,3.55,0,0,0,3.55,3.55,3.345,3.345,0,0,0,1.183-.221,16.755,16.755,0,0,1,2.635,6.311,3.518,3.518,0,0,0,0,6.311,16.8,16.8,0,0,1-2.635,6.311,3.645,3.645,0,0,0-3.739.852Zm7.889-9.135a1.183,1.183,0,1,1,1.183-1.183,1.2,1.2,0,0,1-1.246,1.231ZM36.744,9.9a1.183,1.183,0,0,1,.836,2.019,1.215,1.215,0,0,1-1.672,0A1.183,1.183,0,0,1,36.744,9.9ZM23.917,4.579a1.183,1.183,0,1,1-1.183,1.183A1.2,1.2,0,0,1,23.917,4.579ZM10.254,10.243a1.183,1.183,0,0,1,1.672,1.672,1.215,1.215,0,0,1-1.672,0A1.183,1.183,0,0,1,10.254,10.243ZM5.773,22.722A1.183,1.183,0,1,1,4.59,23.906,1.2,1.2,0,0,1,5.773,22.722Zm4.481,14.846a1.183,1.183,0,1,1,1.674,0,1.183,1.183,0,0,1-1.674,0Zm13.663,5.664A1.183,1.183,0,1,1,25.1,42.049,1.2,1.2,0,0,1,23.917,43.232ZM37.58,37.568a1.183,1.183,0,1,1,0-1.674A1.183,1.183,0,0,1,37.58,37.568Z" transform="translate(-2.296 -2.316)"/>
  </g>
</svg>
