<svg xmlns="http://www.w3.org/2000/svg" width="50.618" height="40.977" viewBox="0 0 50.618 40.977">
  <g id="Grupo_1404" data-name="Grupo 1404" transform="translate(0 0)">
    <path id="webinar_1_" data-name="webinar (1)" d="M50.57,63.388,47.142,52.873a.989.989,0,0,0-.634-.634L35.994,48.812a.989.989,0,0,0-1.246,1.246l.8,2.453L32.2,55.862H5.628a2.192,2.192,0,0,0-2.189,2.189v25.17H.989A.989.989,0,0,0,0,84.21a5.536,5.536,0,0,0,5.53,5.53H40.77a5.536,5.536,0,0,0,5.53-5.53.989.989,0,0,0-.989-.989H43.52V67.185l3.33-3.33.919.3-2.4,2.4a.989.989,0,1,0,1.4,1.4l3.564-3.564a.989.989,0,0,0,.241-1.006Zm-9.8,24.375H5.53A3.559,3.559,0,0,1,2.117,85.2H44.183a3.559,3.559,0,0,1-3.412,2.564ZM5.416,83.222V58.051a.214.214,0,0,1,.212-.212H31.918l2.443,6.6a.989.989,0,0,0,.584.584l6.6,2.443V83.222ZM42.28,65.628l-6.222-2.3-2.3-6.222,2.481-2.481,1.94,5.952a.989.989,0,0,0,.631.633l5.94,1.956ZM39.9,59.484l-2.67-8.189,8.188,2.669,2.68,8.22ZM28.718,69.675,19.229,64.2a.989.989,0,0,0-1.483.856V76.009a.989.989,0,0,0,1.483.856l9.489-5.478a.989.989,0,0,0,0-1.712ZM19.723,74.3V66.765l6.523,3.766Z" transform="translate(0 -48.763)"/>
  </g>
</svg>
