<svg id="Grupo_1407" data-name="Grupo 1407" xmlns="http://www.w3.org/2000/svg" width="46.308" height="74.084" viewBox="0 0 46.308 74.084">
  <g id="Grupo_1399" data-name="Grupo 1399">
    <path id="Caminho_24727" data-name="Caminho 24727" d="M860.358,353.015a1.041,1.041,0,0,1,.232-.471q11.245-18.332,22.5-36.657c.079-.128.069-.464.4-.308a2.084,2.084,0,0,0-.067.814q0,12.828,0,25.66c0,.258-.01.516-.015.773-.326.141-.652.278-.977.422q-10.2,4.563-20.412,9.12A5.645,5.645,0,0,1,860.358,353.015Z" transform="translate(-860.27 -315.539)" fill="#627de9"/>
    <path id="Caminho_24728" data-name="Caminho 24728" d="M874.064,342.81c.005-.257.016-.516.016-.773q0-12.831,0-25.66a2.071,2.071,0,0,1,.068-.814c.2.106.27.315.378.491q11.264,18.352,22.522,36.711c.067.111.126.225.188.338a5.186,5.186,0,0,1-.5-.17q-8.817-3.94-17.636-7.881c-1.663-.743-3.334-1.471-5-2.206Z" transform="translate(-850.93 -315.522)" fill="#627de9"/>
    <path id="Caminho_24729" data-name="Caminho 24729" d="M860.393,341.955a5.65,5.65,0,0,0,1.657-.645q10.21-4.551,20.413-9.121c.325-.145.651-.281.977-.422l.031.035c0,.1-.011.194-.011.289q0,11.5,0,23.008c0,.145.016.289.026.434-.24.092-.394-.1-.561-.2q-11.116-6.444-22.226-12.9c-.155-.091-.384-.124-.394-.377l.1-.106Z" transform="translate(-860.306 -304.479)" fill="#627de9"/>
    <path id="Caminho_24730" data-name="Caminho 24730" d="M874.1,355.519c-.011-.144-.028-.289-.028-.434q0-11.5,0-23.008c0-.1.009-.193.012-.289,1.668.735,3.34,1.463,5,2.206q8.822,3.937,17.636,7.881a5.143,5.143,0,0,0,.5.17c-.2.4-.616.5-.954.7q-5.326,3.113-10.669,6.2l-10.965,6.366A1.254,1.254,0,0,1,874.1,355.519Z" transform="translate(-850.922 -304.465)" fill="#627de9"/>
    <path id="Caminho_24731" data-name="Caminho 24731" d="M883.4,372.514c-.151-.054-.2-.2-.288-.313q-11.244-15.56-22.485-31.123c-.086-.118-.163-.24-.244-.361l.079-.074c1.58.906,3.165,1.8,4.74,2.717q8.92,5.168,17.833,10.346c.125.072.249.149.371.225Q883.4,363.224,883.4,372.514Z" transform="translate(-860.254 -298.43)" fill="#627de9"/>
    <path id="Caminho_24732" data-name="Caminho 24732" d="M874.07,372.54q0-9.292.007-18.582l13.854-8.043,8.707-5.051c.15-.087.3-.166.471-.259.04.205-.1.294-.177.4q-11.237,15.557-22.482,31.106C874.339,372.268,874.26,372.454,874.07,372.54Z" transform="translate(-850.926 -298.456)" fill="#627de9"/>
  </g>
</svg>
