<svg id="Grupo_1403" data-name="Grupo 1403" xmlns="http://www.w3.org/2000/svg" width="30.754" height="39.331" viewBox="0 0 30.754 39.331">
  <path id="big-license" d="M42.556,39.331H20.773a.639.639,0,0,1-.639-.639V.639A.639.639,0,0,1,20.773,0H50.249a.639.639,0,0,1,.639.639v30.15a.639.639,0,0,1,0,.078h0a.665.665,0,0,1-.014.077h0a.639.639,0,0,1-.154.28h-.007l-7.693,7.9,0,0H43a.638.638,0,0,1-.3.164H42.7l-.017,0h-.013A.533.533,0,0,1,42.556,39.331ZM21.412,38.053H41.917V30.794a.639.639,0,0,1,.639-.639H49.61V1.278h-28.2ZM43.2,31.433V37.12l5.539-5.688Zm.995-3.489H24.514a.639.639,0,1,1,0-1.278H44.19a.639.639,0,1,1,0,1.278ZM46.4,25.059H24.514a.639.639,0,1,1,0-1.278H46.4a.639.639,0,0,1,0,1.278ZM28.831,21.043a.633.633,0,0,1-.087-.006l-4.878-.671a.639.639,0,0,1-.538-.765l1.52-7.185a5.35,5.35,0,1,1,7.5.037l1.464,5.718a.639.639,0,0,1-.52.79l-3.8.593-.02.866a.639.639,0,0,1-.639.625Zm-4.111-1.85,3.489.48.131-5.711-.156-.01a5.319,5.319,0,0,1-2.211-.681Zm4.8-1.183.055.235,2.816-.439L31.238,13.28a5.334,5.334,0,0,1-1.618.594ZM28.608,4.547a4.076,4.076,0,1,0,.335.014Q28.775,4.547,28.608,4.547ZM46.4,13.463H37.373a.639.639,0,1,1,0-1.278H46.4a.639.639,0,0,1,0,1.278Zm-1.289-3.4h-7.74a.639.639,0,1,1,0-1.278h7.739a.639.639,0,0,1,0,1.278ZM46.4,6.454H37.373a.639.639,0,1,1,0-1.278H46.4a.639.639,0,0,1,0,1.278Z" transform="translate(-20.133 0)"/>
</svg>
