<svg id="Grupo_1402" data-name="Grupo 1402" xmlns="http://www.w3.org/2000/svg" width="58.014" height="43.057" viewBox="0 0 58.014 43.057">
  <g id="campanha" transform="translate(0 0)">
    <path id="Caminho_25262" data-name="Caminho 25262" d="M4.532,90.929v1.133A1.133,1.133,0,0,0,5.665,93.2H9.343l3.828,13.4a3.413,3.413,0,0,0,3.269,2.466h2.085a3.4,3.4,0,0,0,3.268-4.333L18.5,93.2h3.03a1.133,1.133,0,0,0,1.133-1.133V90.969c8.335.553,17.424,6.93,19.489,8.456v1.7a1.133,1.133,0,0,0,1.133,1.133h4.532a1.133,1.133,0,0,0,1.133-1.133v-11.9a1.133,1.133,0,0,0-2.266,0V99.994H44.417V68.267h2.266V79.031a1.133,1.133,0,1,0,2.266,0v-11.9A1.133,1.133,0,0,0,47.816,66H43.284a1.133,1.133,0,0,0-1.133,1.133v1.7C40.085,70.362,31,76.74,22.662,77.292V76.2a1.133,1.133,0,0,0-1.133-1.133H5.665A1.133,1.133,0,0,0,4.532,76.2v1.133A4.537,4.537,0,0,0,0,81.864V86.4A4.537,4.537,0,0,0,4.532,90.929ZM22.662,79.563c7.817-.458,15.937-5.472,19.489-7.935v25C38.6,94.17,30.478,89.156,22.662,88.7Zm-3.048,25.785a1.133,1.133,0,0,1-1.089,1.444H16.44a1.137,1.137,0,0,1-1.089-.822L11.7,93.2h4.442ZM6.8,77.332H20.4v13.6H6.8ZM2.266,81.864A2.269,2.269,0,0,1,4.532,79.6v9.065A2.269,2.269,0,0,1,2.266,86.4Z" transform="translate(0 -66.001)"/>
    <path id="Caminho_25263" data-name="Caminho 25263" d="M457.666,206h-4.532a1.133,1.133,0,0,0,0,2.266h4.532a1.133,1.133,0,0,0,0-2.266Z" transform="translate(-400.785 -190.138)"/>
    <path id="Caminho_25264" data-name="Caminho 25264" d="M458.17,268.385l-4.532-2.266a1.133,1.133,0,0,0-1.013,2.027l4.532,2.266a1.133,1.133,0,0,0,1.013-2.027Z" transform="translate(-400.783 -243.337)"/>
    <path id="Caminho_25265" data-name="Caminho 25265" d="M452.118,129.9a1.133,1.133,0,0,0,1.52.507l4.532-2.266a1.133,1.133,0,1,0-1.013-2.027l-4.532,2.266A1.133,1.133,0,0,0,452.118,129.9Z" transform="translate(-400.783 -119.199)"/>
    <path id="Caminho_25266" data-name="Caminho 25266" d="M81.133,186A1.133,1.133,0,0,0,80,187.134v4.532a1.133,1.133,0,1,0,2.266,0v-4.532A1.133,1.133,0,0,0,81.133,186Z" transform="translate(-70.935 -172.404)"/>
    <path id="Caminho_25267" data-name="Caminho 25267" d="M121.133,186A1.133,1.133,0,0,0,120,187.134v4.532a1.133,1.133,0,1,0,2.266,0v-4.532A1.133,1.133,0,0,0,121.133,186Z" transform="translate(-106.403 -172.404)"/>
    <ellipse id="Elipse_180" data-name="Elipse 180" cx="2.359" rx="2.359" transform="translate(43.863 19.467)"/>
  </g>
</svg>
