<svg id="Grupo_1406" data-name="Grupo 1406" xmlns="http://www.w3.org/2000/svg" width="56.896" height="56.892" viewBox="0 0 56.896 56.892">
  <g id="Grupo_1400" data-name="Grupo 1400">
    <g id="Grupo_1325" data-name="Grupo 1325" transform="translate(0 0)">
      <path id="Caminho_24735" data-name="Caminho 24735" d="M1333.053,364.305h-3.111a1.969,1.969,0,0,0-.245-.04,24.616,24.616,0,0,1-3.657-.468,28.494,28.494,0,0,1-22.97-26.638,26.879,26.879,0,0,1,.428-6.356,28.279,28.279,0,0,1,7.834-15,27.964,27.964,0,0,1,7.883-5.6,28.291,28.291,0,0,1,11.044-2.765,27.493,27.493,0,0,1,5.944.368,28.3,28.3,0,0,1,15,7.539,27.766,27.766,0,0,1,5.258,6.874,28.187,28.187,0,0,1,3.26,10.082c.084.668.14,1.341.207,2.012v3.11c-.012.082-.034.163-.04.245a24.963,24.963,0,0,1-.391,3.247,28.32,28.32,0,0,1-7.426,14.606,27.772,27.772,0,0,1-6.979,5.341,28.167,28.167,0,0,1-10.057,3.235C1334.376,364.181,1333.714,364.238,1333.053,364.305Zm-1.625-42.934h-12.661c-.394,0-.415.021-.415.4q0,2.777,0,5.553c0,.356.024.382.375.383q1.362,0,2.722,0,3.066,0,6.135,0c.237,0,.416.02.413.333-.008,1.2-.006,2.406,0,3.609,0,.229-.083.332-.323.343-1.192.051-2.382.145-3.569.271a36.667,36.667,0,0,0-6.275,1.128,9.053,9.053,0,0,0-2.791,1.2c-1,.7-1,1.509-.013,2.224a6.813,6.813,0,0,0,1.735.862,34.766,34.766,0,0,0,8.242,1.565c.874.086,1.749.159,2.63.177.273,0,.387.122.364.392-.01.1,0,.2,0,.3v12.162c0,.1.006.2,0,.305-.013.233.083.342.324.333s.5,0,.749,0q2.722,0,5.442,0c.34,0,.366-.029.37-.363,0-.1,0-.2,0-.3q0-6.193,0-12.384c0-.405.025-.423.416-.445q.86-.048,1.717-.109a45.723,45.723,0,0,0,5.994-.791,16.861,16.861,0,0,0,4.1-1.272,3.8,3.8,0,0,0,1.091-.755,1.028,1.028,0,0,0,.021-1.534,3.4,3.4,0,0,0-.933-.689,10.84,10.84,0,0,0-2.115-.833,44.63,44.63,0,0,0-9.863-1.442c-.405-.022-.425-.03-.425-.431q0-1.708,0-3.416c0-.416.022-.435.441-.438.083,0,.168,0,.25,0h8.5c.39,0,.426-.029.426-.368q0-2.8,0-5.608c0-.028,0-.055,0-.084a.239.239,0,0,0-.268-.277l-.334,0Z" transform="translate(-1303.034 -307.414)" fill="#11a87a"/>
      <path id="Caminho_24736" data-name="Caminho 24736" d="M1331.728,340.065a63.8,63.8,0,0,1-8.8-.61,20.06,20.06,0,0,1-4.815-1.169,3.213,3.213,0,0,1-1.1-.679.752.752,0,0,1,.011-1.19,3.066,3.066,0,0,1,.931-.593,17.288,17.288,0,0,1,4.091-1.1,56.3,56.3,0,0,1,6.233-.659l.112,0c.431-.016.448,0,.448.443,0,1.277,0,2.554,0,3.832,0,.4.026.418.418.439,1.665.092,3.331.067,5,.051.379,0,.757-.047,1.136-.048.253,0,.339-.1.338-.349-.009-1.249,0-2.5,0-3.748,0-.67,0-.648.663-.6,1.394.094,2.788.187,4.174.365a26.783,26.783,0,0,1,5.344,1.109,5.86,5.86,0,0,1,1.161.527,2.375,2.375,0,0,1,.442.335.772.772,0,0,1-.018,1.232,3.545,3.545,0,0,1-1.065.641,15.824,15.824,0,0,1-3.2.9,48.608,48.608,0,0,1-6.167.731C1335.444,340.013,1333.835,340.07,1331.728,340.065Z" transform="translate(-1303.873 -309.048)" fill="#11a87a"/>
    </g>
  </g>
</svg>
