<svg xmlns="http://www.w3.org/2000/svg" height="512pt" version="1.1" viewBox="-12 0 512 512" width="512pt">
<g id="surface1">
<path d="M 487.695312 56.914062 C 487.695312 25.53125 462.164062 0 430.78125 0 L 139.761719 0 C 108.917969 0 83.824219 25.09375 83.824219 55.9375 L 83.824219 408.304688 L 0 408.304688 L 0 456.9375 C 0 487.296875 24.703125 512 55.0625 512 L 346.957031 512 C 387.855469 512 402.023438 476.855469 403.800781 458.269531 L 403.871094 457.558594 L 403.871094 103.695312 L 487.695312 103.695312 Z M 55.0625 482 C 41.242188 482 30 470.757812 30 456.9375 L 30 438.304688 L 290.175781 438.304688 L 290.175781 458.980469 L 290.242188 459.691406 C 290.308594 460.386719 290.398438 461.105469 290.503906 461.84375 C 290.53125 462.058594 290.566406 462.277344 290.601562 462.496094 C 290.6875 463.070312 290.789062 463.65625 290.898438 464.253906 C 290.9375 464.460938 290.972656 464.664062 291.015625 464.875 C 291.167969 465.660156 291.339844 466.457031 291.535156 467.269531 C 291.570312 467.425781 291.613281 467.582031 291.652344 467.734375 C 291.820312 468.414062 292.003906 469.101562 292.199219 469.800781 C 292.269531 470.054688 292.34375 470.308594 292.421875 470.5625 C 292.625 471.261719 292.847656 471.96875 293.085938 472.679688 C 293.140625 472.851562 293.191406 473.019531 293.25 473.191406 C 293.546875 474.054688 293.867188 474.929688 294.207031 475.808594 C 294.296875 476.03125 294.386719 476.253906 294.476562 476.476562 C 294.753906 477.164062 295.042969 477.851562 295.347656 478.539062 C 295.460938 478.800781 295.574219 479.0625 295.695312 479.320312 C 296.089844 480.191406 296.503906 481.0625 296.949219 481.929688 C 296.960938 481.953125 296.972656 481.976562 296.984375 482 Z M 373.871094 455.871094 C 373.574219 457.773438 372.375 464.15625 368.769531 470.15625 C 363.914062 478.234375 356.984375 482 346.957031 482 C 337.492188 482 330.804688 478.847656 326.054688 472.105469 C 325.738281 471.65625 325.429688 471.191406 325.132812 470.710938 C 324.695312 470.007812 324.292969 469.300781 323.925781 468.59375 C 323.558594 467.890625 323.226562 467.1875 322.921875 466.496094 C 322.769531 466.152344 322.628906 465.808594 322.488281 465.472656 C 320.988281 461.753906 320.375 458.527344 320.175781 457.269531 L 320.175781 408.304688 L 113.824219 408.304688 L 113.824219 55.9375 C 113.824219 41.636719 125.460938 30 139.765625 30 L 380.644531 30 C 380.28125 30.671875 379.941406 31.351562 379.605469 32.039062 C 379.53125 32.191406 379.457031 32.34375 379.382812 32.496094 C 379.03125 33.234375 378.691406 33.976562 378.375 34.726562 C 378.34375 34.800781 378.316406 34.871094 378.285156 34.945312 C 377.988281 35.652344 377.707031 36.367188 377.4375 37.089844 C 377.382812 37.234375 377.328125 37.382812 377.273438 37.53125 C 377 38.285156 376.738281 39.050781 376.496094 39.824219 C 376.445312 39.980469 376.398438 40.140625 376.351562 40.300781 C 376.121094 41.046875 375.90625 41.800781 375.707031 42.5625 C 375.691406 42.625 375.671875 42.6875 375.65625 42.75 C 375.449219 43.550781 375.265625 44.359375 375.09375 45.171875 C 375.058594 45.351562 375.019531 45.53125 374.984375 45.710938 C 374.820312 46.519531 374.675781 47.332031 374.546875 48.152344 C 374.527344 48.273438 374.511719 48.394531 374.496094 48.515625 C 374.382812 49.273438 374.285156 50.039062 374.203125 50.808594 C 374.1875 50.953125 374.167969 51.101562 374.152344 51.246094 C 374.070312 52.078125 374.007812 52.914062 373.964844 53.757812 C 373.953125 53.9375 373.945312 54.117188 373.9375 54.296875 C 373.898438 55.164062 373.871094 56.035156 373.871094 56.914062 Z M 457.695312 73.695312 L 403.871094 73.695312 L 403.871094 56.914062 C 403.871094 42.074219 415.941406 30 430.78125 30 C 445.621094 30 457.695312 42.074219 457.695312 56.914062 Z M 457.695312 73.695312 " style=" stroke:none;fill-rule:nonzero;fill:rgb(0%,0%,0%);fill-opacity:1;" />
<path d="M 190.113281 73.695312 L 294.777344 73.695312 L 294.777344 103.695312 L 190.113281 103.695312 Z M 190.113281 73.695312 " style=" stroke:none;fill-rule:nonzero;fill:rgb(0%,0%,0%);fill-opacity:1;" />
<path d="M 154.113281 130.667969 L 334.777344 130.667969 L 334.777344 160.667969 L 154.113281 160.667969 Z M 154.113281 130.667969 " style=" stroke:none;fill-rule:nonzero;fill:rgb(0%,0%,0%);fill-opacity:1;" />
<path d="M 154.113281 187.636719 L 334.777344 187.636719 L 334.777344 217.636719 L 154.113281 217.636719 Z M 154.113281 187.636719 " style=" stroke:none;fill-rule:nonzero;fill:rgb(0%,0%,0%);fill-opacity:1;" />
<path d="M 154.113281 244.605469 L 334.777344 244.605469 L 334.777344 274.605469 L 154.113281 274.605469 Z M 154.113281 244.605469 " style=" stroke:none;fill-rule:nonzero;fill:rgb(0%,0%,0%);fill-opacity:1;" />
<path d="M 290.460938 295.332031 C 265.101562 295.332031 244.472656 315.964844 244.472656 341.320312 C 244.472656 366.675781 265.101562 387.308594 290.460938 387.308594 C 315.816406 387.308594 336.445312 366.675781 336.445312 341.320312 C 336.445312 315.964844 315.816406 295.332031 290.460938 295.332031 Z M 290.460938 357.308594 C 281.644531 357.308594 274.472656 350.136719 274.472656 341.320312 C 274.472656 332.507812 281.644531 325.335938 290.460938 325.335938 C 299.273438 325.335938 306.445312 332.507812 306.445312 341.320312 C 306.445312 350.136719 299.273438 357.308594 290.460938 357.308594 Z M 290.460938 357.308594 " style=" stroke:none;fill-rule:nonzero;fill:rgb(0%,0%,0%);fill-opacity:1;" />
</g>
</svg>