<?xml version="1.0" encoding="UTF-8"?>
<svg xmlns="http://www.w3.org/2000/svg" id="Layer_3" data-name="Layer 3" viewBox="0 0 64 64" width="512" height="512"><path d="M6.95,55a5.909,5.909,0,0,0,4.043-1.593l8.472,8.471a3.828,3.828,0,0,0,5.414-5.414L20.414,52,22,50.415a3.415,3.415,0,0,0,0-4.829L20.974,44.56A25.4,25.4,0,0,1,34,41a1,1,0,0,0,.707-1.707L28.414,33l.465-.465a3.828,3.828,0,1,0-5.414-5.413L23,27.586l-6.293-6.293A1,1,0,0,0,15,22,25.389,25.389,0,0,1,7.515,40.071L6.293,41.293l-3.55,3.55A5.95,5.95,0,0,0,6.95,55ZM24,59.171a1.828,1.828,0,0,1-3.121,1.293L12.414,52l2.293-2.293L15,49.414l8.465,8.464A1.819,1.819,0,0,1,24,59.171ZM20.586,47a1.415,1.415,0,0,1,0,2L19,50.586l-2.574-2.574a25.708,25.708,0,0,1,2.838-2.334Zm4.293-18.465A1.829,1.829,0,0,1,28,29.829a1.819,1.819,0,0,1-.535,1.293L27,31.586,24.414,29ZM16.9,24.319,31.682,39.1a27.5,27.5,0,0,0-4.428.744L16.16,28.746A27.5,27.5,0,0,0,16.9,24.319Zm-1.392,6.607,9.562,9.562a27.421,27.421,0,0,0-10.559,6.583L14,47.586,8.414,42l.515-.515A27.433,27.433,0,0,0,15.512,30.926ZM4.157,46.257,7,43.414,12.586,49,9.743,51.843a3.95,3.95,0,1,1-5.586-5.586Z"/><path d="M20,18.982V19h.026a9.922,9.922,0,0,0,11.948,0H32v-.018a10,10,0,1,0-12,0ZM22.141,18a3.981,3.981,0,0,1,7.718,0,7.967,7.967,0,0,1-7.718,0ZM23,10a3,3,0,1,1,3,3A3,3,0,0,1,23,10Zm3-7a7.991,7.991,0,0,1,5.556,13.743,6.025,6.025,0,0,0-2.443-2.862,5,5,0,1,0-6.226,0,6.025,6.025,0,0,0-2.443,2.862A7.991,7.991,0,0,1,26,3Z"/><path d="M53,32a9.988,9.988,0,0,0-6,17.982V50h.026a9.922,9.922,0,0,0,11.948,0H59v-.018A9.988,9.988,0,0,0,53,32ZM49.141,49a3.981,3.981,0,0,1,7.718,0,7.967,7.967,0,0,1-7.718,0ZM50,41a3,3,0,1,1,3,3A3,3,0,0,1,50,41Zm8.556,6.743a6.025,6.025,0,0,0-2.443-2.862,5,5,0,1,0-6.226,0,6.025,6.025,0,0,0-2.443,2.862,8,8,0,1,1,11.112,0Z"/><path d="M47,18.982V19h.026a9.922,9.922,0,0,0,11.948,0H59v-.018a10,10,0,1,0-12,0ZM49.141,18a3.981,3.981,0,0,1,7.718,0,7.967,7.967,0,0,1-7.718,0ZM50,10a3,3,0,1,1,3,3A3,3,0,0,1,50,10Zm3-7a7.991,7.991,0,0,1,5.556,13.743,6.025,6.025,0,0,0-2.443-2.862,5,5,0,1,0-6.226,0,6.025,6.025,0,0,0-2.443,2.862A7.991,7.991,0,0,1,53,3Z"/><path d="M32.567,23.853a1,1,0,0,0,.245,1.883A14.661,14.661,0,0,0,42.87,24.064l.628-.36a1,1,0,0,0,.194-1.589l-4-3.837a1,1,0,0,0-1.579.26A12.231,12.231,0,0,1,32.567,23.853ZM39.222,20.6l2.112,2.025a12.6,12.6,0,0,1-5.227,1.367A14.2,14.2,0,0,0,39.222,20.6Z"/><path d="M43.5,30.3l-.627-.36a14.632,14.632,0,0,0-10.059-1.672,1,1,0,0,0-.245,1.883,12.231,12.231,0,0,1,5.546,5.315,1,1,0,0,0,.725.525A.983.983,0,0,0,39,36a1,1,0,0,0,.692-.278l4-3.837A1,1,0,0,0,43.5,30.3ZM39.222,33.4a14.2,14.2,0,0,0-3.115-3.392,12.593,12.593,0,0,1,5.226,1.367Z"/></svg>
