<svg id="Capa_1" enable-background="new 0 0 512 512" height="512" viewBox="0 0 512 512" width="512" xmlns="http://www.w3.org/2000/svg"><g><path d="m450.1 263.554v-217.254c0-8.284-6.716-15-15-15h-45v-16.3c0-8.284-6.716-15-15-15h-270.1c-3.979 0-7.794 1.58-10.606 4.394l-89.998 89.997c-2.755 2.755-4.396 6.579-4.396 10.609v392c0 8.284 6.716 15 15 15h360.95c77.299 0 136.05-61.978 136.05-135 0-47.521-24.684-89.383-61.9-113.446zm-30-202.254v187.755c-9.568-3.232-19.615-5.413-30-6.418v-181.337zm-330-10.187v38.887h-38.887zm-60.1 430.887v-362h75.1c8.284 0 15-6.716 15-15v-75h240v213.056c-39.24 4.922-73.291 26.753-94.615 57.944h-190.385c-8.284 0-15 6.716-15 15s6.716 15 15 15h174.975c-3.471 9.547-5.888 19.595-7.122 30h-167.853c-8.284 0-15 6.716-15 15s6.716 15 15 15h167.624c1.076 10.393 3.34 20.437 6.646 30h-174.27c-8.284 0-15 6.716-15 15s6.716 15 15 15h189.047c7.719 11.732 17.215 22.193 28.104 31zm347 0c-57.897 0-105-47.103-105-105s47.103-105 105-105 105 47.103 105 105-47.103 105-105 105z"/><path d="m402.016 368.209c-12.525-9.761-29.142-11.739-32.313-17.463-.761-1.374.11-4.237 2.332-5.731 3.305-2.22 10.91-1.302 13.377.976 6.089 5.615 15.579 5.234 21.196-.856 5.616-6.09 5.233-15.579-.856-21.196-3.982-3.673-8.956-6.373-14.355-8.06-.131-8.171-6.786-14.757-14.988-14.757-8.284 0-15 6.716-15 15v.755c-19.165 7.888-27.622 30.944-17.948 48.408 6.793 12.264 18.495 16.886 27.897 20.599 6.212 2.454 16.619 6.159 15.876 12.801-.348 3.118-2.842 6.355-6.064 7.872-4.974 2.34-15.095.814-21.233-3.202-6.933-4.535-16.229-2.593-20.765 4.341-4.535 6.933-2.592 16.229 4.341 20.765 4.943 3.234 11.177 5.881 17.896 7.482v.254c0 8.284 6.716 15 15 15s15-6.716 15-15v-1.426c27.381-10.505 36.261-46.573 10.607-66.562z"/><path d="m106.05 256.05h179.9c8.284 0 15-6.716 15-15 0-79.811-.002 20.42 0-60.1 0-8.284-6.716-15-15-15h-45v-44.95c0-8.284-6.716-15-15-15h-59.9c-8.284 0-15 6.716-15 15v30.037c-2.902-.002-47.873-.04-45-.037-8.275 0-15 6.712-15 15v75.05c0 8.284 6.716 15 15 15zm164.9-60.1v30.1h-30v-30.1zm-89.9-59.95h29.9v90.05h-29.9zm-30 45.037v45.012h-30v-45.037z"/></g></svg>