<?xml version="1.0" encoding="iso-8859-1"?>
<!-- Generator: Adobe Illustrator 19.0.0, SVG Export Plug-In . SVG Version: 6.00 Build 0)  -->
<svg version="1.1" id="Capa_1" xmlns="http://www.w3.org/2000/svg" xmlns:xlink="http://www.w3.org/1999/xlink" x="0px" y="0px"
	 viewBox="0 0 426.667 426.667" style="enable-background:new 0 0 426.667 426.667;" xml:space="preserve">
<g>
	<g>
		<g>
			<path d="M213.333,277.333c-12.8,0-21.333-10.667-21.333-21.333h-42.667c0,27.733,17.067,51.2,42.667,59.733v25.6h42.667v-25.6
				c25.6-8.533,42.667-32,42.667-59.733c0-36.267-27.733-64-64-64C202.667,192,192,181.333,192,170.667
				c0-12.8,10.667-21.333,21.333-21.333c12.8,0,21.333,10.667,21.333,21.333h42.667c0-27.733-17.067-51.2-42.667-59.733v-25.6H192
				v25.6c-25.6,8.533-42.667,32-42.667,59.733c0,34.133,27.733,64,64,64c12.8,0,21.333,10.667,21.333,21.333
				C234.667,268.8,224,277.333,213.333,277.333z"/>
			<path d="M384,0v21.333H213.333c-106.667,0-192,85.333-192,192c0,38.4,12.8,76.8,32,106.667H108.8
				C81.067,292.267,64,256,64,213.333C64,130.133,130.133,64,213.333,64H384v21.333L405.333,64l21.333-21.333L384,0z"/>
			<path d="M317.867,106.667c27.733,27.733,44.8,64,44.8,106.667c0,83.2-66.133,149.333-149.333,149.333H42.667v-21.333L0,384
				l21.333,21.333l21.333,21.333v-21.333h170.667c106.667,0,192-85.333,192-192c0-38.4-12.8-76.8-32-106.667H317.867z"/>
		</g>
	</g>
</g>
<g>
</g>
<g>
</g>
<g>
</g>
<g>
</g>
<g>
</g>
<g>
</g>
<g>
</g>
<g>
</g>
<g>
</g>
<g>
</g>
<g>
</g>
<g>
</g>
<g>
</g>
<g>
</g>
<g>
</g>
</svg>
