<svg id="Capa_1" enable-background="new 0 0 512 512" height="512" viewBox="0 0 512 512" width="512" xmlns="http://www.w3.org/2000/svg"><g><path d="m143.474 345.888c-10.518-3.718-22.121-8.187-28.437-13.141-.977-.767-1.702-3.25-1.119-6.343.29-1.539 1.631-6.679 6.705-8.207 9.729-2.93 16.305.885 18.68 2.66 6.634 4.961 16.034 3.604 20.996-3.03 4.961-6.635 3.604-16.034-3.031-20.995-2.36-1.765-7.863-5.396-15.728-7.678v-2.612c0-8.284-6.716-15-15-15s-15 6.716-15 15v3.077c-13.919 4.372-24.288 16.29-27.103 31.23-2.636 13.985 1.996 27.59 12.085 35.504 9.704 7.611 23.495 13.062 36.953 17.82 8.975 3.172 9.882 9.646 9.062 14.52-1.15 6.842-6.907 14.235-16.829 14.301-11.078.088-13.954-.38-22.176-5.759-6.932-4.535-16.23-2.592-20.764 4.342-4.535 6.933-2.591 16.229 4.341 20.764 9.293 6.079 16.303 8.801 24.43 9.932v2.575c0 8.284 6.716 15 15 15s15-6.716 15-15v-4.537c17.106-6.057 28.029-21.45 30.583-36.644 3.575-21.258-7.939-40.459-28.648-47.779z"/><path d="m490.547 91.49h-94.133v-76.49c0-8.284-6.716-15-15-15h-268.933c-3.979 0-7.794 1.581-10.607 4.395l-91.028 91.04c-2.812 2.812-4.393 6.628-4.393 10.605v390.96c0 8.284 6.716 15 15 15h359.961c8.284 0 15-6.716 15-15v-76.49h94.133c8.284 0 15-6.716 15-15v-299.02c0-8.284-6.716-15-15-15zm-393.066-40.273v39.812h-39.806zm268.933 430.783h-329.961v-360.972h76.028c8.284 0 15-6.716 15-15v-76.028h238.933v61.49h-116.205c-8.284 0-15 6.716-15 15v44.538h-153.786c-8.284 0-15 6.716-15 15s6.716 15 15 15h153.786v30.004h-153.786c-8.284 0-15 6.716-15 15s6.716 15 15 15h153.786v164.478c0 8.284 6.716 15 15 15h116.205zm109.133-91.49h-210.338v-269.02h210.338z"/><path d="m310.213 241.008h120.33c8.284 0 15-6.716 15-15v-59.514c0-8.284-6.716-15-15-15h-120.33c-8.284 0-15 6.716-15 15v59.514c0 8.284 6.716 15 15 15zm15-59.514h90.33v29.514h-90.33z"/><path d="m310.536 270.502c-7.846 0-15.363 6.899-15 15 .364 8.127 6.591 15 15 15 7.846 0 15.363-6.899 15-15-.364-8.127-6.591-15-15-15z"/><path d="m370.54 270.502c-7.846 0-15.363 6.899-15 15 .364 8.127 6.591 15 15 15 7.846 0 15.363-6.899 15-15-.364-8.127-6.591-15-15-15z"/><path d="m430.543 270.502c-7.846 0-15.363 6.899-15 15 .364 8.127 6.591 15 15 15 7.846 0 15.363-6.899 15-15-.364-8.127-6.59-15-15-15z"/><path d="m310.536 330.506c-7.846 0-15.363 6.899-15 15 .364 8.127 6.591 15 15 15 7.846 0 15.363-6.899 15-15-.364-8.127-6.591-15-15-15z"/><path d="m370.54 330.506c-7.846 0-15.363 6.899-15 15 .364 8.127 6.591 15 15 15 7.846 0 15.363-6.899 15-15-.364-8.127-6.591-15-15-15z"/><path d="m430.543 330.506c-7.846 0-15.363 6.899-15 15 .364 8.127 6.591 15 15 15 7.846 0 15.363-6.899 15-15-.364-8.127-6.59-15-15-15z"/></g></svg>