<svg height="512" viewBox="0 0 32 32" width="512" xmlns="http://www.w3.org/2000/svg"><g id="_07_Financial_Report_Budget_Document_Financial_Report" data-name="07 Financial Report, Budget, Document, Financial, Report"><path d="m5 27h14v2h-14a3 3 0 0 1 -3-3v-16a1 1 0 0 1 .28-.71l6-6a1 1 0 0 1 .72-.29h7v2h-6v5a1 1 0 0 1 -1 1h-5v15a1 1 0 0 0 1 1zm2-11h5v-2h-5zm0 5h10v-2h-10zm18-1h-2v1h-1a1 1 0 0 0 -1 1v3a1 1 0 0 0 1 1h3v1h-4v2h2v1h2v-1h1a1 1 0 0 0 1-1v-3a1 1 0 0 0 -1-1h-3v-1h4v-2h-2zm1-9h-5v-5a1 1 0 0 0 -1-1 7 7 0 1 0 7 7 1 1 0 0 0 -1-1zm-3-9a1 1 0 0 0 -1 1v6a1 1 0 0 0 1 1h6a1 1 0 0 0 1-1 7 7 0 0 0 -7-7z"/></g></svg>