<?xml version="1.0" encoding="iso-8859-1"?>
<!-- Generator: Adobe Illustrator 19.0.0, SVG Export Plug-In . SVG Version: 6.00 Build 0)  -->
<svg version="1.1" id="Capa_1" xmlns="http://www.w3.org/2000/svg" xmlns:xlink="http://www.w3.org/1999/xlink" x="0px" y="0px"
	 viewBox="0 0 512 512" style="enable-background:new 0 0 512 512;" xml:space="preserve">
<g>
	<g>
		<path d="M105.998,211.001c-8.271,0-15-6.729-15-15c0-8.271,6.729-15,15-15s15,6.729,15,15h29.999
			c0-19.555-12.541-36.227-29.999-42.419v-32.579H90.998v32.579c-17.459,6.192-29.999,22.865-29.999,42.419
			c0,24.813,20.187,44.999,44.999,44.999c8.271,0,15,6.729,15,15c0,8.271-6.729,15-15,15c-8.271,0-15-6.729-15-15H60.999
			c0,19.555,12.541,36.227,29.999,42.419v32.579h29.999v-32.579c17.459-6.192,29.999-22.865,29.999-42.419
			C150.997,231.188,130.81,211.001,105.998,211.001z"/>
	</g>
</g>
<g>
	<g>
		<path d="M498.809,164.182c-17.535-17.536-46.062-17.544-63.61-0.028l-14.208,14.135V0.005H90.998v60.999H0v450.991h360.993
			v-60.999h59.999V305.233l77.818-77.412C516.396,210.236,516.399,181.771,498.809,164.182z M120.998,30.005h269.995v178.127
			l-29.999,29.843v-78.185l-98.785-98.785h-141.21V30.005z M309.781,151.002h-38.786v-38.786L309.781,151.002z M330.994,481.996
			H29.999V91.003h210.996v89.998h89.998v86.816l-90.233,89.763l-31.827,95.477l95.438-31.812l26.622-26.484V481.996z
			 M283.032,396.737l-26.665,8.889l8.888-26.667C274.756,379.294,282.697,387.21,283.032,396.737z M390.992,420.997h-29.999v-56.078
			l29.999-29.843V420.997z M307.781,375.539c-4.626-9.062-12.09-16.569-21.176-21.249l116.108-115.503L423.926,260L307.781,375.539z
			 M477.625,206.58l-32.431,32.262l-21.213-21.213l32.376-32.207l0.027-0.028c5.848-5.848,15.365-5.848,21.213,0
			C483.542,191.339,483.365,200.84,477.625,206.58z"/>
	</g>
</g>
<g>
	<g>
		<rect x="60.999" y="360.993" width="119.998" height="29.999"/>
	</g>
</g>
<g>
	<g>
		<rect x="60.999" y="420.992" width="119.998" height="29.999"/>
	</g>
</g>
<g>
</g>
<g>
</g>
<g>
</g>
<g>
</g>
<g>
</g>
<g>
</g>
<g>
</g>
<g>
</g>
<g>
</g>
<g>
</g>
<g>
</g>
<g>
</g>
<g>
</g>
<g>
</g>
<g>
</g>
</svg>
