<svg id="Capa_1" enable-background="new 0 0 512 512" height="512" viewBox="0 0 512 512" width="512" xmlns="http://www.w3.org/2000/svg"><g><path d="m401.915 119.172v-29.172h14.749c24.813 0 45-20.187 45-45s-20.187-45-45-45h-295.592c-24.813 0-45 20.187-45 45s20.187 45 45 45h19.156v260.55h229.562v161.45h142.21v-288.758zm29.749-74.172c0 8.271-6.729 15-15 15h-14.749v-30h14.749c8.272 0 15 6.729 15 15zm-120.328 25.113c0 22.201-18.062 40.264-40.264 40.264s-40.265-18.062-40.265-40.264c0-21.071 16.274-38.403 36.912-40.113h6.705c20.638 1.711 36.912 19.042 36.912 40.113zm-190.264-10.113c-8.271 0-15-6.729-15-15s6.729-15 15-15h19.156v30zm49.157 227.852c15.526 4.893 27.805 17.172 32.698 32.698h-32.698zm63.589 32.698c-6.115-32.105-31.484-57.475-63.59-63.59v-226.96h43.204c-7.947 11.383-12.625 25.208-12.625 40.113 0 38.743 31.521 70.264 70.265 70.264 38.743 0 70.264-31.521 70.264-70.264 0-14.905-4.679-28.73-12.625-40.113h43.204v165.872c-5.246-2.021-10.869-3.09-16.659-3.09-12.366 0-23.991 4.816-32.733 13.56-18.04 18.039-18.048 47.399.021 65.487l7.51 7.464c-11.118 11.261-18.72 25.633-21.714 41.257zm137.748 0h-32.335c2.383-7.552 6.535-14.453 12.102-20.109zm110.434 161.45h-82.21v-84.372c13.471 11.022 30.197 17.02 47.896 17.02v-30c-23.943 0-43.758-18.588-45.869-42.225v-34.203l-58.087-57.632c-6.346-6.352-6.343-16.685.007-23.033 3.076-3.077 7.168-4.772 11.52-4.772s8.442 1.695 11.52 4.772l59.188 59.187 21.213-21.213-45.261-45.261v-59.812l80.083 75.709z"/><path d="m70.446 454.574v-100.273h-30v100.273l-19.233-19.233-21.213 21.213 55.446 55.446 55.447-55.446-21.213-21.213z"/><path d="m256.072 173.659h30v30h-30z"/></g></svg>