<svg xmlns="http://www.w3.org/2000/svg" width="37.686" height="37.686" viewBox="0 0 37.686 37.686">
  <g id="Grupo_1369" data-name="Grupo 1369" transform="translate(-925.027 -97.333)">
    <g id="sinal-de-porcentagem" transform="translate(925.027 97.333)">
      <path id="Caminho_25226" data-name="Caminho 25226" d="M3.574,36.062A1.949,1.949,0,0,1,2.2,32.734L32.734,2.2a1.949,1.949,0,0,1,2.756,2.756L4.952,35.49A1.942,1.942,0,0,1,3.574,36.062Zm34.113-7.472a9.1,9.1,0,1,0-9.1,9.1A9.107,9.107,0,0,0,37.686,28.589Zm-3.9,0a5.2,5.2,0,1,1-5.2-5.2A5.2,5.2,0,0,1,33.788,28.589ZM18.193,9.1a9.1,9.1,0,1,0-9.1,9.1A9.107,9.107,0,0,0,18.193,9.1Zm-3.9,0A5.2,5.2,0,1,1,9.1,3.9,5.2,5.2,0,0,1,14.295,9.1Z" transform="translate(0 0)"/>
    </g>
  </g>
</svg>
