<svg xmlns="http://www.w3.org/2000/svg" width="19.139" height="41.462" viewBox="0 0 19.139 41.462">
  <g id="Grupo_1368" data-name="Grupo 1368" transform="translate(-875.845 -93.778)">
    <g id="Dollar" transform="translate(875.845 93.778)">
      <path id="Caminho_25225" data-name="Caminho 25225" d="M27.542,18.947a1.6,1.6,0,0,0,1.595-1.595V16.035a8.245,8.245,0,0,0-7.974-8.223V4.595a1.595,1.595,0,0,0-3.189,0V7.812A8.236,8.236,0,0,0,15.187,23.7l7.579,3.033a5.061,5.061,0,0,1-1.88,9.76H18.251a5.067,5.067,0,0,1-5.061-5.061V30.11a1.595,1.595,0,0,0-3.189,0v1.318a8.245,8.245,0,0,0,7.974,8.223v3.217a1.595,1.595,0,0,0,3.189,0V39.65A8.236,8.236,0,0,0,23.95,23.767l-7.579-3.033a5.061,5.061,0,0,1,1.88-9.76h2.635a5.067,5.067,0,0,1,5.061,5.061v1.318A1.6,1.6,0,0,0,27.542,18.947Z" transform="translate(-9.999 -3)"/>
    </g>
  </g>
</svg>
