<svg xmlns="http://www.w3.org/2000/svg" width="49.761" height="48.102" viewBox="0 0 49.761 48.102">
  <g id="Grupo_1361" data-name="Grupo 1361" transform="translate(-348.885 -92)">
    <g id="curso-online_1_" data-name="curso-online (1)" transform="translate(348.885 92)">
      <path id="Caminho_25185" data-name="Caminho 25185" d="M26.928,22.928a.834.834,0,0,1-.353-.079l-14.1-6.635a.83.83,0,0,1,0-1.5l14.1-6.635a.83.83,0,0,1,.707,0l14.1,6.635a.83.83,0,0,1,0,1.5l-14.1,6.635a.834.834,0,0,1-.353.079ZM14.777,15.464l12.151,5.718,12.151-5.718L26.928,9.746Z" transform="translate(-2.048 -1.365)"/>
      <path id="Caminho_25186" data-name="Caminho 25186" d="M27.782,31.33a.831.831,0,0,1-.371-.087l-9.952-4.976A.83.83,0,0,1,17,25.524V19.182a.829.829,0,0,1,1.182-.751l9.6,4.517,9.6-4.517a.83.83,0,0,1,1.183.751v6.342a.83.83,0,0,1-.459.742l-9.952,4.976a.831.831,0,0,1-.371.087Zm-9.123-6.318,9.123,4.561L36.9,25.012V20.489l-8.77,4.127a.83.83,0,0,1-.707,0l-8.77-4.127Z" transform="translate(-2.901 -3.132)"/>
      <path id="Caminho_25187" data-name="Caminho 25187" d="M43.928,17.659h-14.1a.829.829,0,1,1,0-1.659h14.1a.829.829,0,0,1,0,1.659Z" transform="translate(-4.949 -2.731)"/>
      <path id="Caminho_25188" data-name="Caminho 25188" d="M46.829,25.123A.83.83,0,0,1,46,24.293V16.829a.829.829,0,0,1,1.659,0v7.464A.83.83,0,0,1,46.829,25.123Z" transform="translate(-7.85 -2.731)"/>
      <path id="Caminho_25189" data-name="Caminho 25189" d="M29.829,18.976A.83.83,0,0,1,29,18.147V14.829a.829.829,0,0,1,1.659,0v3.317A.83.83,0,0,1,29.829,18.976Z" transform="translate(-4.949 -2.389)"/>
      <path id="Caminho_25190" data-name="Caminho 25190" d="M44.829,29.147a.829.829,0,0,1-.689-1.29L45.8,25.369a.829.829,0,1,1,1.38.921l-1.659,2.488A.829.829,0,0,1,44.829,29.147Z" transform="translate(-7.509 -4.266)"/>
      <path id="Caminho_25191" data-name="Caminho 25191" d="M48.489,29.147a.829.829,0,0,1-.691-.369l-1.659-2.488a.829.829,0,0,1,1.38-.921l1.659,2.488a.829.829,0,0,1-.689,1.29Z" transform="translate(-7.85 -4.266)"/>
      <path id="Caminho_25192" data-name="Caminho 25192" d="M29.829,28.147A.83.83,0,0,1,29,27.317V24.829a.829.829,0,0,1,1.659,0v2.488A.83.83,0,0,1,29.829,28.147Z" transform="translate(-4.949 -4.096)"/>
      <path id="Caminho_25193" data-name="Caminho 25193" d="M48.931,31.515H.829A.83.83,0,0,1,0,30.686V3.318A3.322,3.322,0,0,1,3.318,0H46.443a3.322,3.322,0,0,1,3.318,3.318V30.686A.83.83,0,0,1,48.931,31.515ZM1.659,29.856H48.1V3.318a1.661,1.661,0,0,0-1.66-1.66H3.318a1.661,1.661,0,0,0-1.66,1.66Z" transform="translate(0 0)"/>
      <path id="Caminho_25194" data-name="Caminho 25194" d="M46.443,44.293H3.318A3.322,3.322,0,0,1,0,40.975V36.829A.83.83,0,0,1,.829,36h48.1a.83.83,0,0,1,.829.829v4.146A3.322,3.322,0,0,1,46.443,44.293ZM1.659,37.659v3.317a1.661,1.661,0,0,0,1.66,1.66H46.443a1.661,1.661,0,0,0,1.66-1.66V37.659Z" transform="translate(0 -6.144)"/>
      <path id="Caminho_25195" data-name="Caminho 25195" d="M31.805,41.659H26.829a.829.829,0,1,1,0-1.659h4.976a.829.829,0,1,1,0,1.659Z" transform="translate(-4.437 -6.826)"/>
      <path id="Caminho_25196" data-name="Caminho 25196" d="M46.3,32.2H4.829A.83.83,0,0,1,4,31.368V4.829A.83.83,0,0,1,4.829,4H46.3a.83.83,0,0,1,.829.829V31.368A.83.83,0,0,1,46.3,32.2ZM5.659,30.539H45.467V5.659H5.659Z" transform="translate(-0.683 -0.683)"/>
      <path id="Caminho_25197" data-name="Caminho 25197" d="M38.051,56.976H16.488a2.488,2.488,0,1,1,0-4.976H38.051a2.488,2.488,0,1,1,0,4.976ZM16.488,53.659a.829.829,0,1,0,0,1.659H38.051a.829.829,0,0,0,0-1.659Z" transform="translate(-2.389 -8.874)"/>
      <path id="Caminho_25198" data-name="Caminho 25198" d="M37.075,52.293H18.829a.829.829,0,0,1,0-1.659c2.752,0,4.147-1.953,4.147-5.805A.83.83,0,0,1,23.805,44H32.1a.83.83,0,0,1,.829.829c0,3.852,1.395,5.805,4.147,5.805a.829.829,0,1,1,0,1.659ZM22.869,50.635H33.036a7.936,7.936,0,0,1-1.743-4.976h-6.68A7.941,7.941,0,0,1,22.869,50.635Z" transform="translate(-3.072 -7.509)"/>
    </g>
  </g>
</svg>
