<svg xmlns="http://www.w3.org/2000/svg" width="40.04" height="40.031" viewBox="0 0 40.04 40.031">
  <g id="Grupo_1365" data-name="Grupo 1365" transform="translate(-661.412 -95.298)">
    <g id="Line" transform="translate(661.667 95.555)">
      <path id="Caminho_25207" data-name="Caminho 25207" d="M22.569,10A12.569,12.569,0,1,0,35.137,22.569,12.582,12.582,0,0,0,22.569,10Zm0,23.342A10.773,10.773,0,1,1,33.342,22.569,10.785,10.785,0,0,1,22.569,33.342Z" transform="translate(-2.818 -2.803)" stroke="#1c1c1c" stroke-width="0.5"/>
      <path id="Caminho_25208" data-name="Caminho 25208" d="M28.036,19.263,21.489,25.81l-2.957-2.956a.9.9,0,1,0-1.269,1.269l3.592,3.591a.9.9,0,0,0,1.269,0l7.182-7.182a.9.9,0,0,0-1.269-1.269Z" transform="translate(-3.534 -3.723)" stroke="#1c1c1c" stroke-width="0.5"/>
      <path id="Caminho_25209" data-name="Caminho 25209" d="M39.59,18.829a.921.921,0,0,1-.24-1.2c.877-1.4,2.151-4.325-2.235-5.4a.906.906,0,0,1-.683-1.021c.421-1.97-.169-4.83-4.133-4.133a.9.9,0,0,1-1.021-.683c-.3-1.51-1.577-4.569-5.4-2.236a.927.927,0,0,1-1.2-.241c-.593-1.121-3.192-3.707-5.844,0a.945.945,0,0,1-1.2.24c-1.74-1.246-4.551-1.558-5.4,2.235a.91.91,0,0,1-1.022.682C9.681,6.778,6.343,6.873,7.072,11.2a.891.891,0,0,1-.682,1.022c-1.771.265-4.5,1.688-2.237,5.4a.872.872,0,0,1-.24,1.2c-1.572.795-3.372,3.621,0,5.847a.89.89,0,0,1,.24,1.19c-2.265,3.711.466,5.133,2.237,5.4a.89.89,0,0,1,.682,1.022c-.728,4.327,2.61,4.422,4.132,4.132a.91.91,0,0,1,1.022.682c.849,3.794,3.66,3.482,5.4,2.235a.945.945,0,0,1,1.2.24c2.652,3.708,5.251,1.122,5.844,0a.928.928,0,0,1,1.2-.241c3.822,2.332,5.1-.726,5.4-2.236a.9.9,0,0,1,1.021-.683c3.965.7,4.553-2.164,4.133-4.133a.906.906,0,0,1,.683-1.021c4.387-1.075,3.113-4,2.235-5.4a.908.908,0,0,1,.238-1.2c1.172-.811,3.708-3.085,0-5.828Zm-1.282,8.945a.932.932,0,0,1-.578,1.4c-1.273.42-3.619.766-2.993,4.482.119.707-.259,1.129-1.068,1.067-1.232-.094-3.768-.593-4.48,2.994a.909.909,0,0,1-1.4.579c-2.417-1.22-3.384-1.376-5.285,1.051a1.008,1.008,0,0,1-1.511,0c-1.022-1.164-2.179-2.955-5.286-1.05a.933.933,0,0,1-1.4-.578c-.62-1.7-.8-3.517-4.481-2.993a.909.909,0,0,1-1.067-1.067c.193-1.462.415-3.808-2.995-4.482a.944.944,0,0,1-.578-1.4c1.362-2.227,1.173-3.621-1.071-5.295a.954.954,0,0,1,.02-1.489c2.186-1.564,2.413-3.057,1.051-5.285a.944.944,0,0,1,.578-1.4c3.41-.673,3.188-3.02,2.995-4.482A.909.909,0,0,1,9.835,8.763c3.677.522,3.86-1.291,4.481-2.993a.932.932,0,0,1,1.4-.578c3.108,1.9,4.265.114,5.286-1.05a1.008,1.008,0,0,1,1.511,0c1.9,2.428,2.868,2.271,5.285,1.051a.909.909,0,0,1,1.4.579c.712,3.587,3.248,3.088,4.48,2.994.811-.062,1.188.361,1.068,1.067-.626,3.717,1.72,4.061,2.993,4.482a.932.932,0,0,1,.578,1.4c-2,3.207.113,4.482,1.051,5.286a.967.967,0,0,1,.084,1.441C38.322,23.212,36.311,24.567,38.308,27.774Z" transform="translate(-2 -1.984)" stroke="#1c1c1c" stroke-width="0.5"/>
    </g>
  </g>
</svg>
