<svg xmlns="http://www.w3.org/2000/svg" width="50.41" height="46.208" viewBox="0 0 50.41 46.208">
  <g id="Grupo_1358" data-name="Grupo 1358" transform="translate(-65.235 -92)">
    <g id="titulo_1_" data-name="titulo (1)" transform="translate(65.235 92)">
      <g id="Grupo_1325" data-name="Grupo 1325" transform="translate(6.301 16.803)">
        <path id="Caminho_25177" data-name="Caminho 25177" d="M22.429,15.3a1.576,1.576,0,0,1-1.575-1.575V12.151H6.151v1.575a1.575,1.575,0,0,1-3.151,0V10.575A1.576,1.576,0,0,1,4.575,9H22.429A1.576,1.576,0,0,1,24,10.575v3.151A1.576,1.576,0,0,1,22.429,15.3Z" transform="translate(-3 -9)"/>
      </g>
      <g id="Grupo_1326" data-name="Grupo 1326" transform="translate(15.228 17.329)">
        <path id="Caminho_25178" data-name="Caminho 25178" d="M8.825,29.2A1.576,1.576,0,0,1,7.25,27.628v-16.8a1.575,1.575,0,0,1,3.151,0v16.8A1.576,1.576,0,0,1,8.825,29.2Z" transform="translate(-7.25 -9.25)"/>
      </g>
      <g id="Grupo_1327" data-name="Grupo 1327" transform="translate(12.602 34.657)">
        <path id="Caminho_25179" data-name="Caminho 25179" d="M12.826,20.651H7.575a1.575,1.575,0,1,1,0-3.151h5.251a1.575,1.575,0,1,1,0,3.151Z" transform="translate(-6 -17.5)"/>
      </g>
      <g id="Grupo_1328" data-name="Grupo 1328" transform="translate(31.506 16.803)">
        <path id="Caminho_25180" data-name="Caminho 25180" d="M26.027,12.151H16.575a1.575,1.575,0,1,1,0-3.151h9.452a1.575,1.575,0,1,1,0,3.151Z" transform="translate(-15 -9)"/>
      </g>
      <g id="Grupo_1329" data-name="Grupo 1329" transform="translate(31.506 25.205)">
        <path id="Caminho_25181" data-name="Caminho 25181" d="M26.027,16.151H16.575a1.575,1.575,0,1,1,0-3.151h9.452a1.575,1.575,0,1,1,0,3.151Z" transform="translate(-15 -13)"/>
      </g>
      <g id="Grupo_1330" data-name="Grupo 1330" transform="translate(31.506 33.607)">
        <path id="Caminho_25182" data-name="Caminho 25182" d="M26.027,20.151H16.575a1.575,1.575,0,1,1,0-3.151h9.452a1.575,1.575,0,1,1,0,3.151Z" transform="translate(-15 -17)"/>
      </g>
      <g id="Grupo_1331" data-name="Grupo 1331" transform="translate(0 0)">
        <path id="Caminho_25183" data-name="Caminho 25183" d="M44.633,47.208H5.776A5.781,5.781,0,0,1,0,41.432V6.776A5.781,5.781,0,0,1,5.776,1H44.633A5.781,5.781,0,0,1,50.41,6.776V41.432A5.781,5.781,0,0,1,44.633,47.208ZM5.776,4.151A2.629,2.629,0,0,0,3.151,6.776V41.432a2.629,2.629,0,0,0,2.625,2.625H44.633a2.629,2.629,0,0,0,2.625-2.625V6.776a2.629,2.629,0,0,0-2.625-2.625Z" transform="translate(0 -1)"/>
      </g>
      <g id="Grupo_1332" data-name="Grupo 1332" transform="translate(0 7.352)">
        <path id="Caminho_25184" data-name="Caminho 25184" d="M48.834,7.651H1.575a1.575,1.575,0,1,1,0-3.151H48.834a1.575,1.575,0,1,1,0,3.151Z" transform="translate(0 -4.5)"/>
      </g>
    </g>
  </g>
</svg>
