<svg xmlns="http://www.w3.org/2000/svg" width="35.128" height="36.618" viewBox="0 0 35.128 36.618">
  <g id="Grupo_1366" data-name="Grupo 1366" transform="translate(-736.214 -97.083)">
    <g id="prazos" transform="translate(736.464 97.333)">
      <path id="Caminho_25210" data-name="Caminho 25210" d="M59.69,67.375H49.029a.529.529,0,0,0,0,1.058H59.69a.529.529,0,1,0,0-1.058Zm0,0" transform="translate(-45.079 -62.622)" stroke="#000" stroke-width="0.5"/>
      <path id="Caminho_25211" data-name="Caminho 25211" d="M59.69,116.75H49.029a.529.529,0,0,0,0,1.058H59.69a.529.529,0,0,0,0-1.058Zm0,0" transform="translate(-45.079 -108.514)" stroke="#000" stroke-width="0.5"/>
      <path id="Caminho_25212" data-name="Caminho 25212" d="M282.976,228.513h-.262v-2.3a5.224,5.224,0,0,0-2.856-4.67l-1.1-.562,1.1-.562a5.224,5.224,0,0,0,2.856-4.67v-2.3h.262a1.552,1.552,0,0,0,0-3.1H270.419a1.552,1.552,0,1,0,0,3.1h.262v2.3a5.223,5.223,0,0,0,2.857,4.67l1.1.562-1.1.562a5.224,5.224,0,0,0-2.857,4.67v2.3h-.262a1.552,1.552,0,1,0,0,3.1h12.557a1.552,1.552,0,1,0,0-3.1Zm-13.051-16.625a.494.494,0,0,1,.494-.494h12.557a.494.494,0,0,1,0,.988H270.419A.494.494,0,0,1,269.925,211.888Zm11.731,1.552v2.3a4.2,4.2,0,0,1-.324,1.623h-9.268a4.2,4.2,0,0,1-.324-1.623v-2.3Zm-7.637,6.032a4.194,4.194,0,0,1-1.313-1.047h7.982a4.2,4.2,0,0,1-1.313,1.047l-1.241.635a.976.976,0,0,0-.376.339h-2.123a.975.975,0,0,0-.376-.339Zm0,3.009,1.24-.635a.978.978,0,0,0,.378-.342h2.119a.978.978,0,0,0,.378.342l1.241.635a4.171,4.171,0,0,1,2,2.222h-9.362A4.173,4.173,0,0,1,274.019,222.48Zm-2.28,3.728a4.3,4.3,0,0,1,.023-.448h9.87a4.229,4.229,0,0,1,.024.448v2.3h-9.917Zm11.237,4.35H270.419a.494.494,0,1,1,0-.987h12.557a.494.494,0,1,1,0,.987Zm0,0" transform="translate(-249.9 -195.498)" stroke="#000" stroke-width="0.5"/>
      <path id="Caminho_25213" data-name="Caminho 25213" d="M17.126,35.06H2.4a1.34,1.34,0,0,1-1.338-1.338V2.4A1.34,1.34,0,0,1,2.4,1.058H19.345v6.3a1.943,1.943,0,0,0,1.94,1.94h6.3V12.9a.529.529,0,0,0,1.058,0V8.765a.53.53,0,0,0-.155-.374L20.248.154A.529.529,0,0,0,19.874,0H2.4A2.4,2.4,0,0,0,0,2.4V33.722a2.4,2.4,0,0,0,2.4,2.4H17.126a.529.529,0,1,0,0-1.058ZM20.4,7.354V1.806l6.43,6.43H21.285A.883.883,0,0,1,20.4,7.354Zm0,0" transform="translate(0 0)" stroke="#000" stroke-width="0.5"/>
    </g>
  </g>
</svg>
