<svg xmlns="http://www.w3.org/2000/svg" width="44.4" height="44.4" viewBox="0 0 44.4 44.4">
  <g id="Grupo_1367" data-name="Grupo 1367" transform="translate(-801.468 -93.778)">
    <g id="layer1" transform="translate(801.468 93.778)">
      <path id="circle931" d="M35.424,289.063a9.53,9.53,0,0,0-7.891,4.2A20.658,20.658,0,1,0,40.727,306.46a9.507,9.507,0,0,0-5.3-17.4Zm0,3.175a6.435,6.435,0,0,1,6.331,6.33,6.153,6.153,0,0,1-6.331,6.346,6.324,6.324,0,0,1-6.346-6.346A6.4,6.4,0,0,1,35.424,292.238Zm-.037,1.555a1.586,1.586,0,0,0-1.555,1.617v1.58H32.089a1.588,1.588,0,0,0,.164,3.171h1.58v1.583a1.586,1.586,0,1,0,3.171,0V300.16h1.58a1.586,1.586,0,1,0,0-3.171H37v-1.58A1.586,1.586,0,0,0,35.387,293.792Zm-14.244,1.617a17.529,17.529,0,0,1,5.085.753,9.419,9.419,0,0,0-.322,2.406,9.544,9.544,0,0,0,9.517,9.517,9.433,9.433,0,0,0,2.406-.322,17.445,17.445,0,1,1-16.687-12.354Zm-.025,6.309a1.587,1.587,0,0,0-1.555,1.617v1.072a5.122,5.122,0,0,0,1.3,10,1.5,1.5,0,0,0,.282.03,1.979,1.979,0,0,1,.158,3.952,1.83,1.83,0,0,0-.183-.012l-.09.006a1.951,1.951,0,0,1-1.747-1.3,1.589,1.589,0,0,0-3,1.053,5.169,5.169,0,0,0,3.28,3.193v1.032a1.586,1.586,0,1,0,3.171,0v-1.066a5.124,5.124,0,0,0-1.295-10,1.664,1.664,0,0,0-.3-.03,1.977,1.977,0,1,1,0-3.955,1.971,1.971,0,0,1,1.871,1.322,1.589,1.589,0,1,0,3-1.053,5.167,5.167,0,0,0-3.277-3.187v-1.05a1.586,1.586,0,0,0-1.617-1.617Z" transform="translate(-0.529 -289.063)"/>
    </g>
  </g>
</svg>
