<svg xmlns="http://www.w3.org/2000/svg" width="46.26" height="46.26" viewBox="0 0 46.26 46.26">
  <g id="Grupo_1359" data-name="Grupo 1359" transform="translate(-160.378 -92)">
    <g id="categoria" transform="translate(160.378 92)">
      <g id="Grupo_1321" data-name="Grupo 1321" transform="translate(25.443 25.443)">
        <path id="Caminho_25173" data-name="Caminho 25173" d="M50.651,55.817H40.166A5.166,5.166,0,0,1,35,50.651V36.542A1.547,1.547,0,0,1,36.542,35H50.651a5.166,5.166,0,0,1,5.166,5.166V50.651A5.166,5.166,0,0,1,50.651,55.817ZM38.084,38.084V50.651a2.073,2.073,0,0,0,2.082,2.082H50.651a2.073,2.073,0,0,0,2.082-2.082V40.166a2.073,2.073,0,0,0-2.082-2.082Z" transform="translate(-35 -35)"/>
      </g>
      <g id="Grupo_1322" data-name="Grupo 1322" transform="translate(0 25.443)">
        <path id="Caminho_25174" data-name="Caminho 25174" d="M17.651,55.817H7.166A5.166,5.166,0,0,1,2,50.651V40.166A5.166,5.166,0,0,1,7.166,35H21.275a1.547,1.547,0,0,1,1.542,1.542V50.651a5.166,5.166,0,0,1-5.166,5.166ZM7.166,38.084a2.073,2.073,0,0,0-2.082,2.082V50.651a2.073,2.073,0,0,0,2.082,2.082H17.651a2.073,2.073,0,0,0,2.082-2.082V38.084Z" transform="translate(-2 -35)"/>
      </g>
      <g id="Grupo_1323" data-name="Grupo 1323" transform="translate(25.443 0)">
        <path id="Caminho_25175" data-name="Caminho 25175" d="M50.651,22.817H36.542A1.547,1.547,0,0,1,35,21.275V7.166A5.166,5.166,0,0,1,40.166,2H50.651a5.166,5.166,0,0,1,5.166,5.166V17.651A5.166,5.166,0,0,1,50.651,22.817ZM38.084,19.733H50.651a2.073,2.073,0,0,0,2.082-2.082V7.166a2.073,2.073,0,0,0-2.082-2.082H40.166a2.073,2.073,0,0,0-2.082,2.082Z" transform="translate(-35 -2)"/>
      </g>
      <g id="Grupo_1324" data-name="Grupo 1324" transform="translate(0 0)">
        <path id="Caminho_25176" data-name="Caminho 25176" d="M21.275,22.817H7.166A5.166,5.166,0,0,1,2,17.651V7.166A5.166,5.166,0,0,1,7.166,2H17.651a5.166,5.166,0,0,1,5.166,5.166V21.275A1.547,1.547,0,0,1,21.275,22.817ZM7.166,5.084A2.073,2.073,0,0,0,5.084,7.166V17.651a2.073,2.073,0,0,0,2.082,2.082H19.733V7.166a2.073,2.073,0,0,0-2.082-2.082Z" transform="translate(-2 -2)"/>
      </g>
    </g>
  </g>
</svg>
