<svg xmlns="http://www.w3.org/2000/svg" width="45.183" height="45.182" viewBox="0 0 45.183 45.182">
  <g id="Grupo_1364" data-name="Grupo 1364" transform="translate(-586.758 -93.527)">
    <g id="lingua_1_" data-name="lingua (1)" transform="translate(587.008 93.778)">
      <path id="Caminho_25222" data-name="Caminho 25222" d="M42.195,12.085a22.541,22.541,0,0,0-6.638-7.759.656.656,0,1,0-.777,1.057,21.129,21.129,0,0,1,8.58,16.3h-5v-5a6.028,6.028,0,0,0-4.8-5.893,20.759,20.759,0,0,0-4.5-7.653,12.707,12.707,0,0,0-1.214-1.088A20.876,20.876,0,0,1,32.273,3.8a.656.656,0,1,0,.621-1.156A22.355,22.355,0,0,0,1,28.985a.656.656,0,0,0,1.253-.39A21,21,0,0,1,1.323,23h5v4.861a6.027,6.027,0,0,0,4.741,5.88A20.932,20.932,0,0,0,15.573,41.5a12.772,12.772,0,0,0,1.247,1.124A21.1,21.1,0,0,1,3.188,31.035a.656.656,0,0,0-1.195.543,22.346,22.346,0,1,0,40.2-19.493ZM32.126,10.663H23V1.346a8.5,8.5,0,0,1,5.135,2.709A19,19,0,0,1,32.126,10.663Zm-10.44,0H12.557a18.994,18.994,0,0,1,3.994-6.609,8.5,8.5,0,0,1,5.134-2.708ZM1.324,21.685a21.069,21.069,0,0,1,15.5-19.638,12.705,12.705,0,0,0-1.213,1.087,20.755,20.755,0,0,0-4.5,7.654,6.028,6.028,0,0,0-4.8,5.893v5Zm6.308,6.173V16.681a4.711,4.711,0,0,1,4.705-4.705H32.346a4.711,4.711,0,0,1,4.706,4.705V27.858a4.711,4.711,0,0,1-4.706,4.705H12.337a4.711,4.711,0,0,1-4.705-4.705Zm4.87,6.018h9.184v9.46C17.994,42.959,14.563,39.429,12.5,33.876Zm15.353,8.759a17.129,17.129,0,0,0,4.694-6.245.656.656,0,0,0-1.187-.56c-2.119,4.489-5.138,7.184-8.364,7.507V33.876h9.348a6.025,6.025,0,0,0,6.018-6.018V23h5a21.069,21.069,0,0,1-15.5,19.638Z" transform="translate(0 0)" stroke="#000" stroke-width="0.5"/>
      <path id="Caminho_25223" data-name="Caminho 25223" d="M247.078,165.649h8.8a22.5,22.5,0,0,1-2.87,4.209q-.165.194-.333.383a11.909,11.909,0,0,1-1.287-1.837.656.656,0,1,0-1.149.635,13.46,13.46,0,0,0,1.534,2.169,19.138,19.138,0,0,1-3.14,2.628.656.656,0,1,0,.713,1.1,20.4,20.4,0,0,0,3.316-2.762q.1.1.2.2a15.2,15.2,0,0,0,3.39,2.555.656.656,0,1,0,.611-1.162,13.858,13.858,0,0,1-3.082-2.33q-.111-.109-.219-.219c.15-.167.3-.336.445-.509a22.892,22.892,0,0,0,3.329-5.059h1.4a.656.656,0,1,0,0-1.312h-5.284v-2.5a.656.656,0,1,0-1.312,0v2.5h-5.058a.656.656,0,1,0,0,1.312Z" transform="translate(-224.916 -147.114)" stroke="#000" stroke-width="0.5"/>
      <path id="Caminho_25224" data-name="Caminho 25224" d="M130.328,200.063l.826,2.188a.656.656,0,1,0,1.228-.463l-3.96-10.492-.007-.018a.894.894,0,0,0-.83-.556h0a.894.894,0,0,0-.83.557l-.006.015-4,10.492a.656.656,0,0,0,1.226.467l.834-2.19Zm-2.745-7.273,2.249,5.96h-4.519Z" transform="translate(-112.001 -174.078)" stroke="#000" stroke-width="0.5"/>
    </g>
  </g>
</svg>
