<svg xmlns="http://www.w3.org/2000/svg" width="45.928" height="45.928" viewBox="0 0 45.928 45.928">
  <g id="Grupo_1362" data-name="Grupo 1362" transform="translate(-433.913 -92)">
    <g id="XMLID_1210_" transform="translate(433.913 92)">
      <g id="XMLID_171_" transform="translate(0 0)">
        <path id="XMLID_349_" d="M55.176,149.873H48.9a.9.9,0,0,0-.9.9v4.306a.9.9,0,0,0,.9.9h6.279a.9.9,0,0,0,.9-.9V150.77A.9.9,0,0,0,55.176,149.873Zm-.9,4.306H49.794v-2.512h4.485Z" transform="translate(-43.694 -136.429)"/>
        <path id="XMLID_1199_" d="M176.226,149.873H166.9a.9.9,0,1,0,0,1.794h9.329a.9.9,0,1,0,0-1.794Z" transform="translate(-151.109 -136.429)"/>
        <path id="XMLID_1203_" d="M176.226,197.873H166.9a.9.9,0,1,0,0,1.794h9.329a.9.9,0,1,0,0-1.794Z" transform="translate(-151.109 -180.123)"/>
        <path id="XMLID_1507_" d="M229.176,342.127H222.9a.9.9,0,0,0-.9.9v4.306a.9.9,0,0,0,.9.9h6.279a.9.9,0,0,0,.9-.9v-4.306A.9.9,0,0,0,229.176,342.127Zm-.9,4.306h-4.485v-2.512h4.485Z" transform="translate(-202.086 -311.437)"/>
        <path id="XMLID_1508_" d="M340,343.024a.9.9,0,0,0,.9.9h9.329a.9.9,0,1,0,0-1.794H340.9A.9.9,0,0,0,340,343.024Z" transform="translate(-309.501 -311.437)"/>
        <path id="XMLID_1513_" d="M350.226,390.127H340.9a.9.9,0,0,0,0,1.794h9.329a.9.9,0,0,0,0-1.794Z" transform="translate(-309.501 -355.131)"/>
        <path id="XMLID_1610_" d="M45.031,26.384H38.752V20.548a.9.9,0,0,0-1.794,0v5.836H16.506a.9.9,0,0,0-.9.9V40.21a.9.9,0,0,0,.9.9H36.958v3.027H8.97V23.861H29.423a.9.9,0,0,0,.9-.9V10.035a.9.9,0,0,0-.9-.9H8.97v-2.5H36.958v5.836a.9.9,0,0,0,1.794,0V.9a.9.9,0,0,0-.9-.9H8.073a.9.9,0,0,0-.9.9V9.138H.9a.9.9,0,0,0-.9.9V22.964a.9.9,0,0,0,.9.9H7.176v21.17a.9.9,0,0,0,.9.9H37.855a.9.9,0,0,0,.9-.9V41.107h6.279a.9.9,0,0,0,.9-.9V27.281A.9.9,0,0,0,45.031,26.384ZM36.958,4.844H31.665V1.794h5.293Zm-7.087-3.05v3.05H8.97V1.794ZM1.794,10.932H28.526V22.067H1.794Zm42.34,28.38H17.4V28.178H44.134Z" transform="translate(0 0)"/>
        <path id="XMLID_1632_" d="M412.9,173.94a.9.9,0,1,0,.634.263A.9.9,0,0,0,412.9,173.94Z" transform="translate(-375.042 -158.337)"/>
      </g>
    </g>
  </g>
</svg>
