<svg xmlns="http://www.w3.org/2000/svg" width="37.907" height="37.907" viewBox="0 0 37.907 37.907">
  <g id="Grupo_1363" data-name="Grupo 1363" transform="translate(-515.42 -97.333)">
    <g id="lingua" transform="translate(515.42 97.333)">
      <g id="Grupo_1338" data-name="Grupo 1338" transform="translate(5.627 7.848)">
        <g id="Grupo_1337" data-name="Grupo 1337">
          <path id="Caminho_25217" data-name="Caminho 25217" d="M84.861,118,82.64,106.893A1.11,1.11,0,0,0,81.551,106H79.33a1.11,1.11,0,0,0-1.089.893L76.02,118a1.111,1.111,0,1,0,2.178.436l.71-3.549h3.066l.71,3.549A1.111,1.111,0,1,0,84.861,118Zm-5.509-5.335.888-4.442h.4l.888,4.442Z" transform="translate(-75.998 -106)"/>
        </g>
      </g>
      <g id="Grupo_1340" data-name="Grupo 1340" transform="translate(22.285 14.512)">
        <g id="Grupo_1339" data-name="Grupo 1339">
          <path id="Caminho_25218" data-name="Caminho 25218" d="M311,198.221h-3.332v-1.111a1.111,1.111,0,1,0-2.221,0v1.111h-3.332a1.11,1.11,0,1,0,0,2.221h.269a13.889,13.889,0,0,0,2.634,4.871c-.853.781-1.717,1.421-2.486,2.036a1.111,1.111,0,0,0,1.388,1.734c.773-.619,1.7-1.306,2.638-2.167.938.861,1.867,1.55,2.638,2.167a1.111,1.111,0,0,0,1.388-1.734c-.767-.614-1.632-1.255-2.486-2.036a13.892,13.892,0,0,0,2.634-4.871H311a1.11,1.11,0,1,0,0-2.221Zm-4.442,5.46a11.7,11.7,0,0,1-1.827-3.246h3.655A11.7,11.7,0,0,1,306.553,203.681Z" transform="translate(-301 -196)"/>
        </g>
      </g>
      <g id="Grupo_1342" data-name="Grupo 1342" transform="translate(0 0)">
        <g id="Grupo_1341" data-name="Grupo 1341">
          <path id="Caminho_25219" data-name="Caminho 25219" d="M34.576,6.737H18.554l-.476-3.819A3.337,3.337,0,0,0,14.772,0H3.332A3.335,3.335,0,0,0,0,3.332V27.838A3.335,3.335,0,0,0,3.332,31.17H12.7l.47,3.819a3.339,3.339,0,0,0,3.306,2.918h18.1a3.335,3.335,0,0,0,3.332-3.332V10.069A3.335,3.335,0,0,0,34.576,6.737ZM3.332,28.948a1.112,1.112,0,0,1-1.111-1.111V3.332A1.112,1.112,0,0,1,3.332,2.221h11.44a1.112,1.112,0,0,1,1.1.972l3.211,25.755Zm11.974,5.238-.371-3.017h2.98Zm20.381.389a1.112,1.112,0,0,1-1.111,1.111H16.945l4.228-4.89a1.109,1.109,0,0,0,.269-.89L18.831,8.958H34.576a1.112,1.112,0,0,1,1.111,1.111Z"/>
        </g>
      </g>
    </g>
  </g>
</svg>
