<svg xmlns="http://www.w3.org/2000/svg" width="39.716" height="39.349" viewBox="0 0 39.716 39.349">
  <g id="Grupo_1370" data-name="Grupo 1370" transform="translate(-892.88 -281.442)">
    <g id="Grupo_1354" data-name="Grupo 1354" transform="translate(892.88 281.442)">
      <g id="Grupo_910" data-name="Grupo 910" transform="translate(0 0)">
        <g id="_09-Digital_Marketing" data-name="09-Digital Marketing" transform="translate(0)">
          <path id="Caminho_24865" data-name="Caminho 24865" d="M39.859,18.612l-3.135,1a.52.52,0,0,1-.2.033.659.659,0,0,1-.2-1.284l3.148-1.008a.66.66,0,0,1,.4,1.258Zm-3.754-2.457,1.706-3.293a.66.66,0,1,0-1.172-.606l-1.706,3.293a.659.659,0,0,0,.283.889.731.731,0,0,0,.3.053A.659.659,0,0,0,36.105,16.155Zm5.039,7.087L37.85,21.536a.66.66,0,0,0-.606,1.172l3.293,1.706a.66.66,0,1,0,.606-1.172Zm-18.8-12.679a.659.659,0,0,1-.362.586l-3.952,1.976a.656.656,0,0,1-.955-.586V8.587A.659.659,0,0,1,18.031,8l3.952,1.976A.659.659,0,0,1,22.346,10.563Zm-2.134,0-1.818-.909v1.818ZM10.49,4.635H5.22a.659.659,0,0,0,0,1.317H10.49a.659.659,0,0,0,0-1.317Zm0,2.635H5.22a.659.659,0,0,0,0,1.317H10.49a.659.659,0,0,0,0-1.317Zm0,2.635H5.22a.659.659,0,0,0,0,1.317H10.49a.659.659,0,0,0,0-1.317ZM32.331,22.155l-.659.191,2.108,6.936a.665.665,0,0,1-.613.85l-2.727.092-17.534.593,1.9,6.284a3.29,3.29,0,1,1-6.3,1.91L6.538,32.3A5.269,5.269,0,0,1,5.49,22.023l4.321-1.317,7.9-4.9H14.422a1.976,1.976,0,0,1-1.956-1.95h-1.8L6.208,16.405a.659.659,0,0,1-.329.086A.593.593,0,0,1,5.55,16.4a.659.659,0,0,1-.329-.566V13.856H3.9A1.976,1.976,0,0,1,1.927,11.88v-7.9A1.976,1.976,0,0,1,3.9,2H16.418a1.976,1.976,0,0,1,1.976,1.976V5.293h5.342a1.976,1.976,0,0,1,1.9,1.976V10.9l1.449-.9a.659.659,0,0,1,.981.369l2.1,6.936.659-.191a2.635,2.635,0,1,1,1.528,5.039ZM12.466,12.539V7.269a1.976,1.976,0,0,1,1.9-1.976h2.707V3.976a.659.659,0,0,0-.659-.659H3.9a.659.659,0,0,0-.659.659v7.9a.659.659,0,0,0,.659.659H5.879a.659.659,0,0,1,.659.659v1.5l3.623-2.075a.718.718,0,0,1,.329-.086Zm7.344,1.976,4.512-2.8V7.269a.659.659,0,0,0-.586-.659H14.369a.659.659,0,0,0-.586.659v6.587a.659.659,0,0,0,.586.659ZM7,31.041a3.952,3.952,0,0,0,1.133-.171l3.781-1.146-2.3-7.561L5.84,23.308A3.952,3.952,0,0,0,7,31.041Zm6.587,6.442-1.923-6.3-3.148.955c-.217.059-.428.105-.659.145l1.923,6.35a1.978,1.978,0,0,0,3.787-1.146Zm16.005-8.549-4.854-15.92-13.9,8.615,2.384,7.858Zm2.733-.092L27.055,11.577l-1.159.718,5.012,16.592ZM31.975,20.9a1.317,1.317,0,0,0,.777-.659,1.278,1.278,0,0,0,.1-1.008,1.317,1.317,0,0,0-1.64-.876l-.659.191.764,2.556Z" transform="translate(-1.786 -2)"/>
        </g>
      </g>
    </g>
  </g>
</svg>
