<svg xmlns="http://www.w3.org/2000/svg" width="38.95" height="38.95" viewBox="0 0 38.95 38.95">
  <g id="Grupo_1372" data-name="Grupo 1372" transform="translate(-547.116 -281.442)">
    <g id="Grupo_1356" data-name="Grupo 1356" transform="translate(547.116 281.442)">
      <g id="play-button_1_" data-name="play-button (1)" transform="translate(0 0)">
        <path id="Caminho_24869" data-name="Caminho 24869" d="M3.967,20.725a16.758,16.758,0,1,1,32.46,5.865,1.359,1.359,0,1,0,2.546.951A19.456,19.456,0,1,0,23.645,39.983a1.359,1.359,0,1,0-.4-2.687A16.773,16.773,0,0,1,3.967,20.725Z" transform="translate(-1.25 -1.25)"/>
        <path id="Caminho_24870" data-name="Caminho 24870" d="M16.609,19.873a1.359,1.359,0,0,0,0,2.717h2.265v2.265a1.359,1.359,0,1,0,2.717,0V22.591h2.265a1.359,1.359,0,0,0,0-2.717H21.591V17.609a1.359,1.359,0,1,0-2.717,0v2.265Z" transform="translate(10.113 10.925)"/>
        <path id="Caminho_24871" data-name="Caminho 24871" d="M9.939,8.426a1.359,1.359,0,0,1,1.369.017l9.058,5.435a1.359,1.359,0,0,1,0,2.33l-9.058,5.435A1.359,1.359,0,0,1,9.25,20.479V9.609a1.359,1.359,0,0,1,.689-1.182Z" transform="translate(5.243 4.431)"/>
      </g>
    </g>
  </g>
</svg>
