<svg xmlns="http://www.w3.org/2000/svg" width="49.204" height="39.832" viewBox="0 0 49.204 39.832">
  <g id="Grupo_1373" data-name="Grupo 1373" transform="translate(-372 -280.561)">
    <g id="Grupo_1357" data-name="Grupo 1357" transform="translate(372 280.561)">
      <path id="webinar" d="M49.156,62.979,45.825,52.758a.961.961,0,0,0-.616-.616L34.988,48.811a.961.961,0,0,0-1.212,1.212l.777,2.385L31.3,55.664H5.47a2.13,2.13,0,0,0-2.128,2.128V82.259H.961A.961.961,0,0,0,0,83.22,5.381,5.381,0,0,0,5.375,88.6H39.631a5.381,5.381,0,0,0,5.375-5.375.961.961,0,0,0-.961-.961H42.3V66.67l3.237-3.237.893.294L44.1,66.062a.961.961,0,1,0,1.359,1.359l3.465-3.465a.962.962,0,0,0,.234-.977ZM39.631,86.673H5.375a3.459,3.459,0,0,1-3.317-2.492h40.89a3.459,3.459,0,0,1-3.317,2.492ZM5.265,82.259V57.792a.208.208,0,0,1,.206-.206H31.026L33.4,64a.961.961,0,0,0,.567.567l6.413,2.375V82.259ZM41.1,65.157l-6.048-2.24-2.24-6.048,2.412-2.412,1.886,5.786a.961.961,0,0,0,.613.615l5.774,1.9Zm-2.313-5.972L36.19,51.224l7.959,2.594,2.6,7.99ZM27.915,69.09l-9.224-5.325a.961.961,0,0,0-1.442.832v10.65a.961.961,0,0,0,1.442.832l9.224-5.325a.961.961,0,0,0,0-1.664Zm-8.743,4.493V66.262l6.341,3.661Z" transform="translate(0 -48.763)"/>
    </g>
  </g>
</svg>
