<svg id="Camada_1" data-name="Camada 1" xmlns="http://www.w3.org/2000/svg" viewBox="0 0 500 144"><title>Prancheta 1</title><path d="M202.48,125l-.9,2-1.35,1.8-1.35,1.8-1.35,1.57-1.35,1.35-1.8,1.35L192.82,136l-2,.67-1.79.67-2.25.22-2.24.22h-4l-2.24-.45-1.8-.45-2-.9-1.79-.9L171,133.72l-1.58-1.35-1.35-1.57-1.35-1.8-1.12-1.8-1.12-2-1.12-2.24-40-93.44L123,27.26,122.74,25l.22-2.47.45-2.25L124.54,18l1.35-2,1.8-2,1.57-1.57,1.79-1.12,1.8-1.12,2-.67,2.24-.22,2.24-.22,2.7.22,2.47.22,2,.9,2,.9,1.57,1.12L151.49,14l1.35,1.57,1.35,1.8.9,1.8,28.75,76.59,28.3-75,1.12-2.25,1.12-2,1.58-2,1.79-1.8,1.57-1.35,1.8-.9,2-.67,2.47-.45,2.47-.22,2.25.22,2,.22,2,.67,1.79.9,1.8,1.12,1.79,1.35,1.35,1.8,1.12,1.57,1.12,2,.68,1.8.22,2.25.22,2.25-.22,2.25-.45,2.24L243.13,32l-.45,1.35-.9,2Zm109.84,13h-2.47l-2.24-.22h-2.25l-2.47-.22-2.24-.45-2.24-.45-2-.45-2.25-.45-2.24-.67-2-.67-2-.67-2-.9-2.24-.9-2.25-.9-2-1.12-2-1.12-2-1.12-2-1.35L271.44,125l-1.8-1.35-1.79-1.35-1.8-1.57-1.57-1.57-1.57-1.57L261.33,116l-1.57-1.8-1.35-1.57-1.35-1.8-1.13-2L254.6,107l-1.12-2-1.13-2-.9-2-.9-2.24-.9-1.8-.67-2-.67-2-.68-2-.45-2.25-.45-2-.45-2-.23-2.25-.45-2V78l-.22-2.25V70.83l.22-2.24V66.34l.45-2,.23-2.25.45-2,.45-2,.45-2.25.68-2,.67-2,.67-2,.9-2,.9-2,.9-2,1.13-2,1.12-2,1.35-1.8,1.13-2,1.35-1.8L260,32.2l1.35-1.57,1.57-1.8,1.8-1.57,1.57-1.57,1.79-1.57,1.8-1.35,1.79-1.35,1.8-1.35,2-1.35,2-1.12,2-1.12,2-1.12,2.24-1.12,2.24-.9,2-.9,2.25-.67,2-.67,2.24-.67,2.25-.45,2.24-.45,2.24-.45,2.25-.22,2.24-.45h2.47l2.24-.22h4.94l2.24.22H320l2.47.22,2.24.45,2.25.45,2,.45,2.25.45,2.24.67,2,.67,2,.67,2.25.67,2,1.12,2.24.9,2,1.12,2,1.12,2,1.12,2,1.35,1.79,1.35,1.8,1.35,1.79,1.35,1.8,1.57L360.83,27l1.57,1.57L364,30.4,365.55,32l1.35,1.8,1.35,1.8,1.13,1.8,1.35,2,1.13,2,1.12,2,.9,2,1.13,2,.67,2,.67,2,.68,1.8.67,2.25.45,2,.45,2,.45,2,.45,2.25.23,2v2.25l.22,2.25v4.94l-.22,2.25v2.25l-.23,2L379,84.08l-.45,2-.45,2-.45,2.25-.67,2-.68,2-.67,2-.67,1.8-1.13,2.25-.9,2-1.12,2-1.13,2-1.35,2-1.13,1.8-1.35,1.8-1.57,1.8-1.35,1.8-1.57,1.57-1.57,1.57-1.8,1.8L357.24,122l-1.8,1.57L353.65,125l-1.8,1.35-2,1.35-2,1.12-2,1.12-2,1.12-2.25.9-2.24.9-2,.9-2.25.67-2,.67-2.24.67-2.24.45-2,.45-2.47.45-2.25.45-2.24.22H317l-2.24.22Zm.67-29.2h2.47l2.47-.22,2.24-.45,2.25-.67,2.24-.67,2.25-.9,1.79-.9,2-1.12,1.8-1.12,1.79-1.35,1.57-1.57,1.57-1.57,1.35-1.57,1.12-1.8,1.35-1.8.9-1.8.9-2L344,87l.67-2,.68-2.25.45-2.25.23-2.25.22-2.24V70.61L346,68.36l-.45-2.25-.45-2.25-.67-2.25-.67-2.24-.9-2-.9-2-1.12-1.8-1.35-2-1.35-1.57-1.35-1.8-1.57-1.57L333.66,45l-1.8-1.35-1.79-1.12-2-1.12-1.8-1.12L324,39.61l-2.25-.67-2.24-.67-2.24-.45-2.47-.22h-4.94l-2.47.22-2.47.45-2.24.67-2.24.67-2,.67-2,1.12-1.8,1.12-1.79,1.12L291,45l-1.57,1.35-1.35,1.57-1.57,1.57-1.12,1.8L284,53.09l-.9,1.8-.9,2-.9,2-.67,2.25L280,63.42l-.23,2.25-.45,2.25-.22,2.25v5.39l.22,2.25.45,2.25.45,2.24.67,2.25.68,2.25.9,2,.9,2,1.12,2,1.35,1.8,1.35,1.8L288.51,98l1.57,1.57,1.57,1.57,1.8,1.35,1.79,1.12,2,1.12,2,1.12,2,.9,2.25.67,2.24.67,2.25.45,2.47.22Zm82.21,26.5-2.25-.45-2-.45-2-.9-1.8-.9-1.57-1.12-1.8-1.57-1.12-1.8-1.12-2-.45-2.25-.22-2.25v-.67l.22-2.47.23-2.25.67-2,.67-1.8,1.12-1.8,1.35-2,1.57-2L448,38l-53.45-.22-2.25-.45-1.79-.67-1.8-1.12L386.89,34l-1.35-1.57-1.35-1.8-.67-2-.45-2-.22-2.25.22-2.25.45-2.24.67-1.8,1.35-1.8,1.35-1.8,1.79-1.35,1.8-1.35,1.79-.67,2.25-.45,80.63-.22h2.25l2.24.45,2,.45,2,.9,1.8.9,1.57,1.12,1.79,1.57L490,17.6l1.12,2,.45,2.25.22,2.24v3.15l-.45,2-.45,2.24-.9,1.8-1.13,1.8-1.12,2-1.79,2L424.4,107.66h53.68l2.25.22,2.24.45,1.8.67,1.79,1.35,1.8,1.35,1.35,1.8,1.35,1.8.67,1.8.45,2.25.22,2.24-.22,2.25-.45,2-.67,2-1.35,1.8L488,131.25l-1.8,1.57-1.79,1.12-1.8.67-2.24.45-2.25.22Z"/><path d="M51.85,93.26H65a6.13,6.13,0,0,1,5.38,3.19,65.46,65.46,0,0,1,7.7,24.77A6.13,6.13,0,0,1,72,128H54.38a6.16,6.16,0,0,1-6.05-5.26A36.6,36.6,0,0,0,17.82,92,6.17,6.17,0,0,1,12.48,86V68.45a6.12,6.12,0,0,1,6.73-6.1,65.5,65.5,0,0,1,28,9.56,6.1,6.1,0,0,1,2.73,6.33l-2,10.18A3.89,3.89,0,0,0,51.85,93.26Zm29-23-2,10.18a6.1,6.1,0,0,0,2.73,6.33,65.5,65.5,0,0,0,28,9.56,6.12,6.12,0,0,0,6.73-6.1V72.75a6.17,6.17,0,0,0-5.34-6.06A36.6,36.6,0,0,1,80.43,36a6.16,6.16,0,0,0-6.05-5.26H56.77a6.13,6.13,0,0,0-6.1,6.74,65.46,65.46,0,0,0,7.7,24.77,6.13,6.13,0,0,0,5.38,3.19H76.91A3.89,3.89,0,0,1,80.83,70.31Z"/></svg>