<svg xmlns="http://www.w3.org/2000/svg" width="45" height="45" viewBox="0 0 45 45">
  <g id="bitcoin" transform="translate(0 0)">
    <g id="Grupo_510" data-name="Grupo 510" transform="translate(0 0)">
      <g id="Grupo_509" data-name="Grupo 509" transform="translate(0 0)">
        <path id="Caminho_420" data-name="Caminho 420" d="M22.517,0A22.5,22.5,0,1,0,45,22.5,22.5,22.5,0,0,0,22.517,0Zm-.035,41.256A18.756,18.756,0,1,1,41.238,22.5,18.756,18.756,0,0,1,22.483,41.256Z" transform="translate(0 0)" fill="#643d8f"/>
      </g>
    </g>
    <g id="Grupo_512" data-name="Grupo 512" transform="translate(13.218 9.369)">
      <g id="Grupo_511" data-name="Grupo 511">
        <path id="Caminho_421" data-name="Caminho 421" d="M165.733,118.635a4.111,4.111,0,0,0,2.038-4.249c-.348-2.63-3.483-3.622-5.956-3.831V106.6h-2.438v3.918h-1.637V106.6H155.3v3.918H150.39v2.525h1.829c.819,0,1.219.244,1.219.906V124.8c0,.906-.453,1.184-.94,1.184h-1.863v2.577h4.737v4.005h2.455v-4.005h1.637v4.005h2.386v-4.005h.522c5.016,0,6.687-2.455,6.687-5.8A4.336,4.336,0,0,0,165.733,118.635Zm-7.993-5.433h1.741c1.219,0,3.622.209,3.622,2.194a2.456,2.456,0,0,1-2.142,2.595h-3.222Zm2.7,12.539v-.017h-2.7V120.5h3.135c.731,0,3.483.244,3.483,2.194S163.051,125.74,160.438,125.74Z" transform="translate(-150.39 -106.601)" fill="#643d8f"/>
      </g>
    </g>
  </g>
</svg>
