<?xml version="1.0" encoding="utf-8"?>
<!-- Generator: Adobe Illustrator 25.4.1, SVG Export Plug-In . SVG Version: 6.00 Build 0)  -->
<svg version="1.1" id="Camada_1" xmlns="http://www.w3.org/2000/svg" xmlns:xlink="http://www.w3.org/1999/xlink" x="0px" y="0px"
	 viewBox="0 0 45 45" style="enable-background:new 0 0 45 45;" xml:space="preserve">
<style type="text/css">
	.st0{fill:#FFFFFF;}
</style>
<g id="bitcoin" transform="translate(0 0)">
	<g id="Grupo_510" transform="translate(0 0)">
		<g id="Grupo_509" transform="translate(0 0)">
			<path id="Caminho_420" class="st0" d="M22.5,0C10.1,0,0,10.1,0,22.5S10.1,45,22.5,45C34.9,45,45,34.9,45,22.5c0,0,0,0,0,0
				C45,10.1,34.9,0,22.5,0z M22.5,41.3c-10.4,0-18.8-8.4-18.8-18.8S12.1,3.7,22.5,3.7s18.8,8.4,18.8,18.8v0
				C41.2,32.9,32.8,41.3,22.5,41.3L22.5,41.3z"/>
		</g>
	</g>
	<g id="Grupo_512" transform="translate(13.218 9.369)">
		<g id="Grupo_511">
			<path id="Caminho_421" class="st0" d="M15.3,12c1.5-0.8,2.3-2.5,2-4.2c-0.3-2.6-3.5-3.6-6-3.8V0H9v3.9H7.4V0H4.9v3.9H0v2.5h1.8
				C2.6,6.4,3,6.7,3,7.3v10.9c0,0.9-0.5,1.2-0.9,1.2H0.2V22H5v4h2.5v-4h1.6v4h2.4v-4H12c5,0,6.7-2.5,6.7-5.8
				C18.6,14.2,17.3,12.5,15.3,12z M7.4,6.6h1.7c1.2,0,3.6,0.2,3.6,2.2c0.1,1.3-0.9,2.4-2.1,2.6H7.3L7.4,6.6z M10.1,19.1L10.1,19.1
				l-2.7,0v-5.2h3.1c0.7,0,3.5,0.2,3.5,2.2S12.7,19.1,10.1,19.1L10.1,19.1z"/>
		</g>
	</g>
</g>
</svg>
