<svg xmlns="http://www.w3.org/2000/svg" width="66.423" height="47.6" viewBox="0 0 66.423 47.6">
  <path id="Caminho_24820" data-name="Caminho 24820" d="M3094.857,1233.22v34.633a.783.783,0,0,0-.021.106,6.59,6.59,0,0,1-.605,2.358,6.956,6.956,0,0,1-5.024,4.008c-.289.063-.584.093-.877.138h-19.663a1.34,1.34,0,0,0-.148-.015q-1.329,0-2.661,0l-10.462-.007q-9.668-.006-19.332-.013a7.011,7.011,0,0,1-7.028-7.085q0-16.4,0-32.809a7.919,7.919,0,0,1,.049-.847,6.819,6.819,0,0,1,1.923-4.058,6.9,6.9,0,0,1,5.117-2.161q14.426,0,28.853,0l22.858,0a6.582,6.582,0,0,1,1.67.183,6.949,6.949,0,0,1,5.186,4.944C3094.759,1232.8,3094.8,1233.01,3094.857,1233.22Zm-58.837-2.044-.029.043a.854.854,0,0,1,.122.089q1.579,1.572,3.155,3.146l20.367,20.333q.8.795,1.592,1.587a1.159,1.159,0,0,0,1.063.346,1.326,1.326,0,0,0,.708-.418q8.947-8.949,17.9-17.9,3.551-3.548,7.1-7.1c.038-.039.077-.079.131-.136Zm19.127,24.048-15.692,15.7h44.836l-15.47-15.472c-.03.035-.064.084-.105.127l-5.76,5.758a1.165,1.165,0,0,1-1.759,0q-2.953-2.97-5.905-5.941C3055.238,1255.34,3055.19,1255.277,3055.147,1255.224Zm36.183-22.231-19.968,19.979c.03.027.075.06.114.1q4.469,4.48,8.939,8.957,4.311,4.317,8.621,8.637a.172.172,0,0,0,.2.058,2.7,2.7,0,0,0,1.807-1.7,5.511,5.511,0,0,0,.286-1.955v-34.074Zm-38.729,19.818-19.637-19.64v.133q0,17.277,0,34.55a5.648,5.648,0,0,0,.077.9,2.3,2.3,0,0,0,1.456,1.908.212.212,0,0,0,.271-.056q8.862-8.867,17.732-17.73A.4.4,0,0,1,3052.6,1252.811Z" transform="translate(-3028.734 -1227.162)" fill="#3F3F3F" stroke="#3F3F3F" stroke-width="0.6"/>
</svg>
