<?xml version="1.0" encoding="utf-8"?>
<!-- Generator: Adobe Illustrator 25.4.1, SVG Export Plug-In . SVG Version: 6.00 Build 0)  -->
<svg version="1.1" id="Camada_1" xmlns="http://www.w3.org/2000/svg" xmlns:xlink="http://www.w3.org/1999/xlink" x="0px" y="0px"
	 viewBox="0 0 46 46" style="enable-background:new 0 0 46 46;" xml:space="preserve">
<style type="text/css">
	.st0{fill:#FFFFFF;}
</style>
<g id="Grupo_508" transform="translate(-928.689 -1247.451)">
	<path id="Caminho_417" class="st0" d="M964.3,1282.4c-1.8,0-3.4-0.7-4.7-1.9l-6.8-6.7c-0.5-0.5-1.3-0.5-1.8,0l-6.8,6.8
		c-1.2,1.2-2.9,1.9-4.7,1.9h-1.3l8.5,8.5c2.7,2.7,7,2.7,9.7,0c0,0,0,0,0,0l8.6-8.6L964.3,1282.4z"/>
	<path id="Caminho_418" class="st0" d="M939.6,1258.5c1.8,0,3.4,0.7,4.7,1.9l6.8,6.8c0.5,0.5,1.3,0.5,1.8,0c0,0,0,0,0,0l6.8-6.7
		c1.2-1.2,2.9-1.9,4.7-1.9h0.8l-8.6-8.6c-2.7-2.7-7-2.7-9.7,0c0,0,0,0,0,0l-8.5,8.5L939.6,1258.5z"/>
	<path id="Caminho_419" class="st0" d="M972.2,1265.6l-5.2-5.2c-0.1,0-0.2,0.1-0.4,0.1h-2.4c-1.2,0-2.4,0.5-3.3,1.4l-6.7,6.7
		c-1.3,1.3-3.3,1.3-4.6,0c0,0,0,0,0,0l-6.8-6.8c-0.9-0.9-2-1.3-3.3-1.3h-2.9c-0.1,0-0.2,0-0.3-0.1l-5.2,5.2c-2.7,2.7-2.7,7,0,9.7
		c0,0,0,0,0,0l5.2,5.2c0.1,0,0.2-0.1,0.4-0.1h2.9c1.2,0,2.4-0.5,3.3-1.4l6.8-6.8c1.3-1.2,3.3-1.2,4.6,0l6.7,6.7
		c0.9,0.9,2,1.4,3.3,1.4h2.4c0.1,0,0.3,0,0.4,0.1l5.2-5.2C974.9,1272.6,974.9,1268.3,972.2,1265.6
		C972.2,1265.6,972.2,1265.6,972.2,1265.6L972.2,1265.6z"/>
</g>
</svg>
