<?xml version="1.0" encoding="utf-8"?>
<!-- Generator: Adobe Illustrator 25.4.1, SVG Export Plug-In . SVG Version: 6.00 Build 0)  -->
<svg version="1.1" id="Camada_1" xmlns="http://www.w3.org/2000/svg" xmlns:xlink="http://www.w3.org/1999/xlink" x="0px" y="0px"
	 viewBox="0 0 47 47" style="enable-background:new 0 0 47 47;" xml:space="preserve">
<style type="text/css">
	.st0{fill:#FFFFFF;}
</style>
<g id="financeiro_1_" transform="translate(0 0)">
	<path id="Caminho_400" class="st0" d="M45.5,17.6c0.8,0,1.5-0.7,1.5-1.5v-2.9c0-0.5-0.3-1-0.8-1.3l-22-11.7c-0.4-0.2-0.9-0.2-1.4,0
		l-22,11.8C0.3,12.2,0,12.7,0,13.2v2.9c0,0.8,0.7,1.5,1.5,1.5h4.4v23.5H2c-1.1,0-2,0.9-2,2v2c0,1.1,0.9,2,2,2H45c1.1,0,2-0.9,2-2v-2
		c0-1.1-0.9-2-2-2h-3.9V17.6H45.5z M37.2,41.1H9.8V17.6h27.4V41.1z"/>
	<path id="Caminho_401" class="st0" d="M22.8,30.8h1.5c0.7,0,1.2,0.5,1.2,1.2c0,0.7-0.5,1.2-1.2,1.2h-4.2c-0.8,0-1.5,0.7-1.5,1.5
		c0,0.8,0.7,1.5,1.5,1.5h2v1.5c0,0.8,0.7,1.5,1.5,1.5c0.8,0,1.5-0.7,1.5-1.5c0,0,0,0,0,0v-1.5c2.3-0.4,3.8-2.6,3.4-4.8
		c-0.4-2-2.1-3.4-4.1-3.4h-1.5c-0.7,0-1.2-0.5-1.2-1.2c0-0.7,0.5-1.2,1.2-1.2h4.2c0.8,0,1.5-0.7,1.5-1.5c0-0.8-0.7-1.5-1.5-1.5
		c0,0,0,0,0,0h-2v-1.5c0-0.8-0.7-1.5-1.5-1.5c-0.8,0-1.5,0.7-1.5,1.5v1.5c-2.3,0.4-3.8,2.6-3.4,4.8C19,29.4,20.7,30.8,22.8,30.8z"/>
</g>
</svg>
