<svg xmlns="http://www.w3.org/2000/svg" width="35.509" height="42.391" viewBox="0 0 35.509 42.391">
  <g id="ganhos" transform="translate(-39.499 0.5)">
    <g id="Grupo_530" data-name="Grupo 530" transform="translate(39.999)">
      <g id="Grupo_529" data-name="Grupo 529">
        <path id="Caminho_24744" data-name="Caminho 24744" d="M74.29,40.214l-8.968-8.968a.689.689,0,0,0-.488-.2H64.75a10.113,10.113,0,0,0,.134-13.506l-2.669-3.05h.549a.689.689,0,0,0,.69-.69V4.829a.689.689,0,0,0-.69-.69H61.121L62.691,1a.69.69,0,0,0-.617-1H52.416A.69.69,0,0,0,51.8,1l1.157,2.315L50.751,5.519H40.689a.689.689,0,0,0-.69.69V13.8a.689.689,0,0,0,.69.69H52.276l-2.669,3.051a10.118,10.118,0,0,0,.136,13.505H47.587a.689.689,0,0,0-.69.69v1.38a.689.689,0,0,0,.276.552l8.278,6.209a.691.691,0,0,0,.563.122l5.839-1.3,2.492,2.491a.689.689,0,0,0,.488.2H73.8a.69.69,0,0,0,.488-1.178ZM48.277,13.107h-6.9V6.9h6.9ZM60.958,1.38l-1.38,2.759H57.9l.03-.659a.69.69,0,0,0-.689-.721H54.222l-.69-1.38Zm-11.3,11.728V6.9h1.38a.689.689,0,0,0,.488-.2l2.557-2.557h2.442l-.03.659a.69.69,0,0,0,.689.721h4.891v7.588H49.657ZM48.471,24.221a8.786,8.786,0,0,1,2.175-5.776l3.464-3.959h6.272l3.465,3.959a8.749,8.749,0,0,1-.569,12.145c-.178.168-.352.32-.519.453H57.245a.689.689,0,0,0-.69.69v.69H54.133a8.7,8.7,0,0,1-2.918-1.832A8.816,8.816,0,0,1,48.471,24.221ZM63.415,38.308l-.853-.853a.693.693,0,0,0-.637-.186l-5.9,1.311-7.749-5.811v-.345h1.937l3.326,1.331a.7.7,0,0,0,.256.049h2.887a2.066,2.066,0,0,0,1.942,1.38h2.07V33.8h-2.07a.69.69,0,0,1-.69-.69v-.69h6.613l2.106,2.106Zm1.7,1.7-.726-.726,3.239-3.778,4.5,4.5Z" transform="translate(-39.999)" fill="#34EF00" stroke="#34EF00" stroke-width="1"/>
      </g>
    </g>
    <g id="Grupo_532" data-name="Grupo 532" transform="translate(53.796 15.177)">
      <g id="Grupo_531" data-name="Grupo 531" transform="translate(0)">
        <path id="Caminho_24745" data-name="Caminho 24745" d="M203.448,182.9a2.07,2.07,0,1,1,2.07-2.07h1.38a3.455,3.455,0,0,0-2.759-3.379V176h-1.38v1.449a3.449,3.449,0,0,0,.69,6.829,2.07,2.07,0,1,1-2.07,2.07H200a3.455,3.455,0,0,0,2.759,3.379v1.45h1.38v-1.45a3.449,3.449,0,0,0-.69-6.829Z" transform="translate(-199.999 -176)" fill="#34EF00" stroke="#34EF00" stroke-width="1"/>
      </g>
    </g>
    <g id="Grupo_534" data-name="Grupo 534" transform="translate(50.75 22.884)">
      <g id="Grupo_533" data-name="Grupo 533" transform="translate(0 0)">
        <rect id="Ret창ngulo_443" data-name="Ret창ngulo 443" width="1.322" fill="#34EF00" stroke="#34EF00" stroke-width="1"/>
      </g>
    </g>
    <g id="Grupo_536" data-name="Grupo 536" transform="translate(61.326 22.884)">
      <g id="Grupo_535" data-name="Grupo 535" transform="translate(0 0)">
        <rect id="Ret창ngulo_444" data-name="Ret창ngulo 444" width="1.322" transform="translate(0)" fill="#34EF00" stroke="#34EF00" stroke-width="1"/>
      </g>
    </g>
  </g>
</svg>
