<svg xmlns="http://www.w3.org/2000/svg" width="48.093" height="46.841" viewBox="0 0 48.093 46.841">
  <g id="globo" transform="translate(0.25 -19.128)">
    <g id="Grupo_456" data-name="Grupo 456" transform="translate(37.869 51.309)">
      <g id="Grupo_455" data-name="Grupo 455">
        <path id="Caminho_382" data-name="Caminho 382" d="M415.854,345.678a1,1,0,0,0-1.4.155,21.864,21.864,0,0,1-1.467,1.651,1,1,0,0,0,1.424,1.4,23.884,23.884,0,0,0,1.6-1.8A1,1,0,0,0,415.854,345.678Z" transform="translate(-412.697 -345.459)" fill="#3F3F3F" stroke="#3F3F3F" stroke-width="0.5"/>
      </g>
    </g>
    <g id="Grupo_458" data-name="Grupo 458" transform="translate(22.288 55.284)">
      <g id="Grupo_457" data-name="Grupo 457">
        <path id="Caminho_383" data-name="Caminho 383" d="M261.378,386.453a1,1,0,0,0-1.4-.193,24.051,24.051,0,0,1-13.236,4.8,1,1,0,0,0,.056,2l.057,0a26.042,26.042,0,0,0,14.33-5.2A1,1,0,0,0,261.378,386.453Z" transform="translate(-245.8 -386.058)" fill="#3F3F3F" stroke="#3F3F3F" stroke-width="0.5"/>
      </g>
    </g>
    <g id="Grupo_460" data-name="Grupo 460" transform="translate(0 19.378)">
      <g id="Grupo_459" data-name="Grupo 459">
        <path id="Caminho_384" data-name="Caminho 384" d="M46.92,37.06h0a22.683,22.683,0,0,0-2.555-6.171,23.356,23.356,0,0,0-6.429-6.979A24.035,24.035,0,0,0,23.8,19.378a24.642,24.642,0,0,0-4.286.376A24.061,24.061,0,0,0,8.62,24.7,22.8,22.8,0,0,0,0,42.549,22.688,22.688,0,0,0,3.26,54.262a23.63,23.63,0,0,0,8.528,8.294h0a24.02,24.02,0,0,0,6.387,2.511,24.517,24.517,0,0,0,5.62.652A24.175,24.175,0,0,0,36.71,62.014a23.412,23.412,0,0,0,8.641-9.638,22.47,22.47,0,0,0,2.241-9.827A22.7,22.7,0,0,0,46.92,37.06ZM38.312,26.694A21.342,21.342,0,0,1,41.5,30.077l-1.874-.453a1.882,1.882,0,0,0-1.694.422,2.108,2.108,0,0,0-.715,1.673.079.079,0,0,1-.033.067l-1.377.947a.07.07,0,0,1-.077,0l-1.939-1.163a.489.489,0,0,1-.216-.522l.436-1.962a.458.458,0,0,1,.427-.367l1.643-.048A2.4,2.4,0,0,0,38.312,26.694ZM11.779,58.032,11.5,60.07A21.1,21.1,0,0,1,1.9,42.549c0-.62.029-1.245.085-1.869L3.25,40.9a5.793,5.793,0,0,0,.97.082h.643a4.071,4.071,0,0,1,2.491.867l.974.76a.4.4,0,0,1,.149.273l.132,1.286a.39.39,0,0,1-.312.43,2.371,2.371,0,0,0-1.91,2.4l.069,4.528a2.456,2.456,0,0,0,.465,1.412l1.545,2.133a6.085,6.085,0,0,0,2.851,2.169A.737.737,0,0,1,11.779,58.032Zm6.108,4.908a22.17,22.17,0,0,1-4.613-1.82l.382-2.8a2.748,2.748,0,0,0-1.72-2.968,4.187,4.187,0,0,1-1.962-1.493L8.429,51.722a.4.4,0,0,1-.076-.232l-.069-4.528a.39.39,0,0,1,.314-.394,2.37,2.37,0,0,0,1.9-2.617l-.132-1.287A2.427,2.427,0,0,0,9.458,41l-.974-.76a5.917,5.917,0,0,0-3.621-1.26H4.22a3.992,3.992,0,0,1-.668-.056l-1.3-.221A20.983,20.983,0,0,1,9.773,26.287,22.2,22.2,0,0,1,19.426,21.8a4.387,4.387,0,0,1,1.211,1.764l.054.143a4.6,4.6,0,0,1,.266,1.117l.048.436a4.625,4.625,0,0,1-.325,2.277l-.516,1.237a4.335,4.335,0,0,1-1.6,1.958l-.642.426a2.284,2.284,0,0,0-.993,2.012l.087,1.828a.248.248,0,0,1-.072.191.223.223,0,0,1-.184.067.234.234,0,0,1-.184-.129l-.789-1.543a2.166,2.166,0,0,0-1.3-1.1l-2.788-.82a3.092,3.092,0,0,0-2.21.18l-.664.318a3.512,3.512,0,0,0-.95,5.518L9.68,39.588a4.313,4.313,0,0,1,.291.341l1.242,1.614a2.807,2.807,0,0,0,2.232,1.121h.009l3.384-.011h0a.972.972,0,0,1,.844.511,2.893,2.893,0,0,0,1.88,1.435l1.268.286a.983.983,0,0,1,.653.514L22.1,46.58a2.583,2.583,0,0,0,1.074,1.1l2.878,1.54a.685.685,0,0,1,.132,1.091L25.09,51.329a2.681,2.681,0,0,0-.692,1.059l-.238.669a.775.775,0,0,1-.415.452l-1.164.509a2.785,2.785,0,0,0-1.633,2.575.828.828,0,0,1-.086.367Zm5.91.782a22.766,22.766,0,0,1-3.983-.351l2.728-5.483a2.919,2.919,0,0,0,.3-1.294.789.789,0,0,1,.463-.73l1.164-.509a2.737,2.737,0,0,0,1.464-1.6l.238-.669a.671.671,0,0,1,.173-.265l1.093-1.019a2.742,2.742,0,0,0-.53-4.368L24.032,45.9a.645.645,0,0,1-.268-.275l-.612-1.183a2.891,2.891,0,0,0-1.921-1.511l-1.268-.286a.985.985,0,0,1-.64-.488,2.858,2.858,0,0,0-2.482-1.5h-.009l-3.384.011h0a.955.955,0,0,1-.759-.381L11.444,38.67a6.308,6.308,0,0,0-.423-.5L9.209,36.267A1.456,1.456,0,0,1,9.6,33.98l.664-.318a1.282,1.282,0,0,1,.916-.075l2.788.82a.239.239,0,0,1,.143.121l.789,1.543a2.126,2.126,0,0,0,1.674,1.17,2.065,2.065,0,0,0,1.674-.612,2.307,2.307,0,0,0,.656-1.735l-.087-1.828a.251.251,0,0,1,.109-.221l.642-.426A6.3,6.3,0,0,0,21.9,29.575l.516-1.237a6.721,6.721,0,0,0,.473-3.309l-.048-.436a6.686,6.686,0,0,0-.387-1.623l-.054-.143a6.528,6.528,0,0,0-.7-1.355h0c.7-.064,1.4-.1,2.093-.1a22.223,22.223,0,0,1,12.66,3.9l.007.925a.468.468,0,0,1-.439.479l-1.643.048a2.383,2.383,0,0,0-2.221,1.908l-.436,1.962a2.541,2.541,0,0,0,1.124,2.713l1.939,1.163a1.877,1.877,0,0,0,2.052-.066l1.377-.947a2.12,2.12,0,0,0,.891-1.809.074.074,0,0,1,.027-.062.066.066,0,0,1,.063-.016l2.126.514c.053.013.107.023.161.032l1.5.227A20.675,20.675,0,0,1,44.6,35.93l-1.469-.374c-.059-.015-.118-.028-.178-.038l-1.6-.272a5.219,5.219,0,0,0-4.735,1.667l-.241.264a5.766,5.766,0,0,0-1.4,2.828l-.611,3.255a5.921,5.921,0,0,0,.342,3.357,5.432,5.432,0,0,0,4.325,3.375l.3.036a5.151,5.151,0,0,0,2.425-.3l1.011-.382a.438.438,0,0,1,.5.149l.133.173a.5.5,0,0,1,.1.286l.048,1.736A22.067,22.067,0,0,1,23.8,63.722ZM44.854,48.388l-.111-.144a2.307,2.307,0,0,0-1.827-.917,2.234,2.234,0,0,0-.79.145l-1.011.382a3.335,3.335,0,0,1-1.57.191l-.3-.036a3.518,3.518,0,0,1-2.8-2.186,3.834,3.834,0,0,1-.222-2.174l.611-3.255a3.732,3.732,0,0,1,.907-1.832l.241-.264a3.38,3.38,0,0,1,3.067-1.08l1.6.272.034.007,2.531.644a20.634,20.634,0,0,1-.366,10.246Z" transform="translate(0 -19.378)" fill="#3F3F3F" stroke="#3F3F3F" stroke-width="0.5"/>
      </g>
    </g>
  </g>
</svg>
