<?xml version="1.0" encoding="utf-8"?>
<!-- Generator: Adobe Illustrator 25.4.1, SVG Export Plug-In . SVG Version: 6.00 Build 0)  -->
<svg version="1.1" id="Camada_1" xmlns="http://www.w3.org/2000/svg" xmlns:xlink="http://www.w3.org/1999/xlink" x="0px" y="0px"
	 viewBox="0 0 47 47" style="enable-background:new 0 0 47 47;" xml:space="preserve">
<style type="text/css">
	.st0{fill:#FFFFFF;}
</style>
<g id="Grupo_800" transform="translate(-182 -633.869)">
	<g id="add-user_1_" transform="translate(182 633.869)">
		<g id="Grupo_617" transform="translate(0)">
			<g id="Grupo_616">
				<path id="Caminho_24776" class="st0" d="M33.7,23.6c-0.9-0.4-1.8-0.8-2.8-1.1c5.5-4.1,6.6-12,2.5-17.5S21.5-1.6,16,2.5
					s-6.6,12-2.5,17.5c0.7,1,1.6,1.8,2.5,2.5C7.9,25.1,1.9,31.9,0.1,40.3c-0.6,3,1.3,6,4.3,6.6C4.8,47,5.2,47,5.6,47h22.6
					c1,0,1.8-0.8,1.8-1.8c0-1-0.8-1.8-1.8-1.8H5.6c-0.6,0-1.1-0.3-1.5-0.7c-0.4-0.4-0.5-1-0.4-1.6C5.7,31.8,13.6,25.2,23,25
					c0.2,0,0.3,0,0.5,0s0.3,0,0.5,0c2.8,0.1,5.6,0.7,8.2,1.9c0.9,0.4,2,0,2.4-0.9C35,25.1,34.6,24,33.7,23.6L33.7,23.6z M23.9,21.3
					c-0.1,0-0.3,0-0.4,0c-0.2,0-0.3,0-0.4,0c-4.9-0.2-8.6-4.4-8.4-9.2s4.4-8.6,9.2-8.4s8.6,4.4,8.4,9.2
					C32.1,17.4,28.5,21.1,23.9,21.3z"/>
			</g>
		</g>
		<g id="Grupo_619" transform="translate(29.559 29.559)">
			<g id="Grupo_618">
				<path id="Caminho_24777" class="st0" d="M15.6,6.9h-5v-5c0-1-0.8-1.8-1.8-1.8S6.9,0.8,6.9,1.8c0,0,0,0,0,0v5h-5
					C0.8,6.9,0,7.7,0,8.7s0.8,1.8,1.8,1.8c0,0,0,0,0,0h5v5c0,1,0.8,1.8,1.8,1.8s1.8-0.8,1.8-1.8c0,0,0,0,0,0v-5h5
					c1,0,1.8-0.8,1.8-1.8S16.6,6.9,15.6,6.9C15.6,6.9,15.6,6.9,15.6,6.9z"/>
			</g>
		</g>
	</g>
</g>
</svg>
