<svg id="Grupo_799" data-name="Grupo 799" xmlns="http://www.w3.org/2000/svg" width="36.972" height="47" viewBox="0 0 36.972 47">
  <path id="Caminho_7" data-name="Caminho 7" d="M234.23,1240.087a3.963,3.963,0,0,0-2.67-3.78,13.786,13.786,0,0,0-1.938-.5c0-.158,0-.37,0-.581-.055-2.414.076-4.845-.208-7.238-.561-4.722-4.817-8.863-10.036-10.028-.851-.189-1.724-.3-2.586-.448h-2.076a2.138,2.138,0,0,1-.3.065,14.394,14.394,0,0,0-8.265,3.371,11.14,11.14,0,0,0-4.2,8.039c-.112,2.108-.056,4.22-.073,6.33,0,.18,0,.361,0,.561-.389.054-.735.074-1.064.153a4.161,4.161,0,0,0-3.545,4.1q-.014,10.072,0,20.144c0,2.464,1.992,4.224,4.779,4.226q13.7.015,27.4-.014a5.819,5.819,0,0,0,2.147-.417,3.94,3.94,0,0,0,2.636-3.887q0-8.214,0-16.427C234.234,1242.534,234.251,1241.31,234.23,1240.087Zm-27.714-8.865c.01-.763.041-1.525.115-2.282.015-.151.031-.3.049-.454a6.347,6.347,0,0,1,.134-.74c.051-.207.112-.408.182-.608.054-.153.111-.3.175-.451a7.063,7.063,0,0,1,.531-.991q.2-.317.441-.616c.079-.1.161-.2.244-.293a9.1,9.1,0,0,1,2.807-2.133c.241-.12.49-.23.742-.331s.512-.192.775-.272.531-.15.8-.209.546-.108.823-.145c.139-.018.278-.034.418-.046s.288-.022.433-.029c.279-.013.558-.014.839,0a10.077,10.077,0,0,1,6.1,2.23,8.27,8.27,0,0,1,1.378,1.469,7.791,7.791,0,0,1,.437.667,7.686,7.686,0,0,1,.658,1.457c.05.151.093.3.135.457q.086.329.145.669c.006.035.012.068.017.1a7.961,7.961,0,0,1,.1,1.208q.007,1.388,0,2.776t0,2.776v.434H206.584c-.024-.026-.045-.037-.044-.05q.005-.457,0-.915v0c0-1.069-.034-2.142-.03-3.211C206.512,1231.527,206.513,1231.376,206.515,1231.222Zm23.065,29.195H229q-13.233,0-26.465.011c-.523,0-.662-.114-.66-.582q.028-9.66.013-19.32v-.512h27.7Z" transform="translate(-197.268 -1217.51)" fill="#3F3F3F"/>
  <path id="Caminho_8" data-name="Caminho 8" d="M219.339,1263.428a1.314,1.314,0,0,1,0-.137,1.961,1.961,0,0,0-.9-2.031,3.523,3.523,0,0,1-1-4.532,4.694,4.694,0,0,1,4.612-2.37,4.415,4.415,0,0,1,4.072,3.1,3.78,3.78,0,0,1-1.841,4.261.607.607,0,0,0-.344.6c.021.719.018,1.438,0,2.156a2.307,2.307,0,0,1-4.6.01C219.332,1264.133,219.34,1263.78,219.339,1263.428Z" transform="translate(-203.155 -1227.754)" fill="#3F3F3F"/>
</svg>
