<svg xmlns="http://www.w3.org/2000/svg" width="46.285" height="46" viewBox="0 0 46.285 46">
  <g id="Grupo_52" data-name="Grupo 52" transform="translate(0.5 0.5)">
    <path id="Caminho_107" data-name="Caminho 107" d="M150.966,1102.849a3.4,3.4,0,0,1,2.128,3.653c-.092,2.488-.023,4.982-.023,7.507h-2.742v-8.284H127.969c.422.23.68.38.946.513,3.064,1.533,6.119,3.086,9.2,4.579a1.35,1.35,0,0,1,.9,1.428c-.03,7.695-.018,15.39-.018,23.085v1.224h11.292v-11.117h2.73c.019.335.05.629.051.922,0,3.264.013,6.53,0,9.794-.01,2.181-1.078,3.23-3.274,3.237-3.2.009-6.4,0-9.594,0h-1.231v8.459h-.2a8.625,8.625,0,0,0-.878-.576c-4.445-2.226-8.887-4.459-13.349-6.65a4.217,4.217,0,0,1-2.373-2.374v-33.2a3.573,3.573,0,0,1,2.2-2.2Z" transform="translate(-122.166 -1102.849)" fill="#3F3F3F" stroke="rgba(0,0,0,0)" stroke-width="1"/>
    <path id="Caminho_108" data-name="Caminho 108" d="M183.311,1138.4v-5.615H172.135v-5.6h11.183v-5.582L194.51,1130Z" transform="translate(-149.558 -1113.131)" fill="#3F3F3F" stroke="rgba(0,0,0,0)" stroke-width="1"/>
  </g>
</svg>
