<svg xmlns="http://www.w3.org/2000/svg" width="30.412" height="38.54" viewBox="0 0 30.412 38.54">
  <g id="relatorio" transform="translate(-53.99)">
    <g id="Grupo_546" data-name="Grupo 546" transform="translate(58.464 9.799)">
      <g id="Grupo_545" data-name="Grupo 545" transform="translate(0)">
        <path id="Caminho_24747" data-name="Caminho 24747" d="M119.732,130.181l-3.106,3.106-1.6-1.6-1.6,1.6,3.2,3.2,4.7-4.7Z" transform="translate(-113.431 -130.181)" fill="#34EF00"/>
      </g>
    </g>
    <g id="Grupo_548" data-name="Grupo 548" transform="translate(68.577 9.16)">
      <g id="Grupo_547" data-name="Grupo 547" transform="translate(0)">
        <rect id="Retângulo_471" data-name="Retângulo 471" width="11.305" height="2.258" fill="#34EF00"/>
      </g>
    </g>
    <g id="Grupo_550" data-name="Grupo 550" transform="translate(68.577 13.681)">
      <g id="Grupo_549" data-name="Grupo 549" transform="translate(0)">
        <rect id="Retângulo_472" data-name="Retângulo 472" width="11.305" height="2.258" fill="#34EF00"/>
      </g>
    </g>
    <g id="Grupo_552" data-name="Grupo 552" transform="translate(58.464 18.839)">
      <g id="Grupo_551" data-name="Grupo 551" transform="translate(0)">
        <path id="Caminho_24748" data-name="Caminho 24748" d="M119.732,250.282l-3.106,3.106-1.6-1.6-1.6,1.6,3.2,3.2,4.7-4.7Z" transform="translate(-113.431 -250.282)" fill="#34EF00"/>
      </g>
    </g>
    <g id="Grupo_554" data-name="Grupo 554" transform="translate(68.577 18.2)">
      <g id="Grupo_553" data-name="Grupo 553" transform="translate(0)">
        <rect id="Retângulo_473" data-name="Retângulo 473" width="11.305" height="2.258" fill="#34EF00"/>
      </g>
    </g>
    <g id="Grupo_556" data-name="Grupo 556" transform="translate(68.577 22.721)">
      <g id="Grupo_555" data-name="Grupo 555" transform="translate(0)">
        <rect id="Retângulo_474" data-name="Retângulo 474" width="11.305" height="2.258" fill="#34EF00"/>
      </g>
    </g>
    <g id="Grupo_558" data-name="Grupo 558" transform="translate(58.464 27.88)">
      <g id="Grupo_557" data-name="Grupo 557" transform="translate(0)">
        <path id="Caminho_24749" data-name="Caminho 24749" d="M119.732,370.384l-3.106,3.106-1.6-1.6-1.6,1.6,3.2,3.2,4.7-4.7Z" transform="translate(-113.431 -370.384)" fill="#34EF00"/>
      </g>
    </g>
    <g id="Grupo_560" data-name="Grupo 560" transform="translate(68.577 27.241)">
      <g id="Grupo_559" data-name="Grupo 559" transform="translate(0)">
        <rect id="Retângulo_475" data-name="Retângulo 475" width="11.305" height="2.258" fill="#34EF00"/>
      </g>
    </g>
    <g id="Grupo_562" data-name="Grupo 562" transform="translate(68.577 31.761)">
      <g id="Grupo_561" data-name="Grupo 561" transform="translate(0)">
        <rect id="Retângulo_476" data-name="Retângulo 476" width="11.305" height="2.258" fill="#34EF00"/>
      </g>
    </g>
    <g id="Grupo_564" data-name="Grupo 564" transform="translate(53.99)">
      <g id="Grupo_563" data-name="Grupo 563" transform="translate(0)">
        <path id="Caminho_24750" data-name="Caminho 24750" d="M77.621,2.32V0H60.77V2.32H53.99V38.54H84.4V2.32ZM63.029,2.258H75.363V4.64H63.029ZM82.143,36.281h-25.9V4.578H60.77V6.9H77.621V4.578h4.522v31.7Z" transform="translate(-53.99)" fill="#34EF00"/>
      </g>
    </g>
  </g>
</svg>
