<svg xmlns="http://www.w3.org/2000/svg" width="47" height="47" viewBox="0 0 47 47">
  <path id="XMLID_298_" d="M23.5,0A23.5,23.5,0,1,0,40.194,40.03a1.929,1.929,0,0,0-.094-2.71l-3.709-3.654a3.388,3.388,0,0,0,.245-3.694,10.039,10.039,0,0,0-3.972-4.11,3.817,3.817,0,0,0-1.931-.575,3.2,3.2,0,0,0-.733.087,6.574,6.574,0,0,0-2.352,1.145,1.458,1.458,0,0,1-.9.275,2.108,2.108,0,0,1-1.2-.38,28.644,28.644,0,0,1-5.925-5.925,1.906,1.906,0,0,1-.106-2.1,6.5,6.5,0,0,0,1.145-2.351,3.507,3.507,0,0,0-.486-2.661,10.037,10.037,0,0,0-4.111-3.975,3.672,3.672,0,0,0-1.7-.441,3.512,3.512,0,0,0-2.58,1.2,27.211,27.211,0,0,0-1.96,2.4,3.853,3.853,0,0,0-.534,2.676l0,.018A11.119,11.119,0,0,0,10.539,19.2a29.231,29.231,0,0,0,5.58,7.674c.508.518,2.53,2.542,3.05,3.05A29.268,29.268,0,0,0,26.843,35.5a11.152,11.152,0,0,0,3.941,1.245H30.8c.224.011.464.023.7.023a3.242,3.242,0,0,0,1.914-.518l2.44,2.4A19.557,19.557,0,1,1,43.067,23.5,1.967,1.967,0,0,0,47,23.5,23.528,23.528,0,0,0,23.5,0Z" fill="#3F3F3F"/>
</svg>
