<svg xmlns="http://www.w3.org/2000/svg" width="46" height="46" viewBox="0 0 46 46">
  <g id="Grupo_508" data-name="Grupo 508" transform="translate(-928.689 -1247.451)">
    <path id="Caminho_417" data-name="Caminho 417" d="M436.536,307.6a6.565,6.565,0,0,1-4.676-1.935l-6.751-6.745a1.276,1.276,0,0,0-1.771,0l-6.775,6.775a6.57,6.57,0,0,1-4.676,1.935H410.56l8.546,8.546a6.833,6.833,0,0,0,9.668,0l8.575-8.575Z" transform="translate(527.746 974.773)" fill="#643d8f" stroke="rgba(0,0,0,0)" stroke-width="1"/>
    <path id="Caminho_418" data-name="Caminho 418" d="M411.887,304.768a6.569,6.569,0,0,1,4.676,1.935l6.775,6.775a1.249,1.249,0,0,0,1.771,0l6.751-6.745a6.57,6.57,0,0,1,4.676-1.941h.813l-8.575-8.569a6.833,6.833,0,0,0-9.668,0l-8.546,8.546Z" transform="translate(527.746 953.732)" fill="#643d8f" stroke="rgba(0,0,0,0)" stroke-width="1"/>
    <path id="Caminho_419" data-name="Caminho 419" d="M452,301.547l-5.179-5.179a.988.988,0,0,1-.368.076h-2.356a4.638,4.638,0,0,0-3.273,1.356l-6.745,6.745a3.232,3.232,0,0,1-4.583,0l-6.775-6.775a4.656,4.656,0,0,0-3.273-1.35h-2.893a.958.958,0,0,1-.345-.07l-5.2,5.2a6.834,6.834,0,0,0,0,9.668l5.2,5.2a1.015,1.015,0,0,1,.351-.07h2.893a4.638,4.638,0,0,0,3.273-1.356l6.775-6.775a3.317,3.317,0,0,1,4.583.006l6.745,6.746a4.662,4.662,0,0,0,3.273,1.356h2.356a.988.988,0,0,1,.368.076L452,311.216a6.833,6.833,0,0,0,0-9.668Z" transform="translate(520.189 964.066)" fill="#643d8f" stroke="rgba(0,0,0,0)" stroke-width="1"/>
  </g>
</svg>
