<svg xmlns="http://www.w3.org/2000/svg" width="35.509" height="45" viewBox="0 0 35.509 45">
  <g id="relatorio" transform="translate(-53.99)">
    <g id="Grupo_546" data-name="Grupo 546" transform="translate(59.214 11.442)">
      <g id="Grupo_545" data-name="Grupo 545" transform="translate(0)">
        <path id="Caminho_24747" data-name="Caminho 24747" d="M120.788,130.181l-3.626,3.626L115.3,131.94l-1.865,1.865,3.731,3.731,5.491-5.491Z" transform="translate(-113.431 -130.181)" fill="#643d8f"/>
      </g>
    </g>
    <g id="Grupo_548" data-name="Grupo 548" transform="translate(71.022 10.696)">
      <g id="Grupo_547" data-name="Grupo 547" transform="translate(0)">
        <rect id="Retângulo_471" data-name="Retângulo 471" width="13.2" height="2.637" fill="#643d8f"/>
      </g>
    </g>
    <g id="Grupo_550" data-name="Grupo 550" transform="translate(71.022 15.974)">
      <g id="Grupo_549" data-name="Grupo 549" transform="translate(0)">
        <rect id="Retângulo_472" data-name="Retângulo 472" width="13.2" height="2.637" fill="#643d8f"/>
      </g>
    </g>
    <g id="Grupo_552" data-name="Grupo 552" transform="translate(59.214 21.997)">
      <g id="Grupo_551" data-name="Grupo 551" transform="translate(0)">
        <path id="Caminho_24748" data-name="Caminho 24748" d="M120.788,250.282l-3.626,3.626-1.867-1.867-1.865,1.865,3.731,3.731,5.491-5.491Z" transform="translate(-113.431 -250.282)" fill="#643d8f"/>
      </g>
    </g>
    <g id="Grupo_554" data-name="Grupo 554" transform="translate(71.022 21.251)">
      <g id="Grupo_553" data-name="Grupo 553" transform="translate(0)">
        <rect id="Retângulo_473" data-name="Retângulo 473" width="13.2" height="2.637" fill="#643d8f"/>
      </g>
    </g>
    <g id="Grupo_556" data-name="Grupo 556" transform="translate(71.022 26.529)">
      <g id="Grupo_555" data-name="Grupo 555" transform="translate(0)">
        <rect id="Retângulo_474" data-name="Retângulo 474" width="13.2" height="2.637" fill="#643d8f"/>
      </g>
    </g>
    <g id="Grupo_558" data-name="Grupo 558" transform="translate(59.214 32.553)">
      <g id="Grupo_557" data-name="Grupo 557" transform="translate(0)">
        <path id="Caminho_24749" data-name="Caminho 24749" d="M120.788,370.384l-3.626,3.626-1.867-1.867-1.865,1.865,3.731,3.731,5.491-5.491Z" transform="translate(-113.431 -370.384)" fill="#643d8f"/>
      </g>
    </g>
    <g id="Grupo_560" data-name="Grupo 560" transform="translate(71.022 31.807)">
      <g id="Grupo_559" data-name="Grupo 559" transform="translate(0)">
        <rect id="Retângulo_475" data-name="Retângulo 475" width="13.2" height="2.637" fill="#643d8f"/>
      </g>
    </g>
    <g id="Grupo_562" data-name="Grupo 562" transform="translate(71.022 37.085)">
      <g id="Grupo_561" data-name="Grupo 561" transform="translate(0)">
        <rect id="Retângulo_476" data-name="Retângulo 476" width="13.2" height="2.637" fill="#643d8f"/>
      </g>
    </g>
    <g id="Grupo_564" data-name="Grupo 564" transform="translate(53.99)">
      <g id="Grupo_563" data-name="Grupo 563" transform="translate(0)">
        <path id="Caminho_24750" data-name="Caminho 24750" d="M81.583,2.709V0H61.907V2.709H53.99V45H89.5V2.709ZM64.544,2.637h14.4V5.418h-14.4ZM86.863,42.363H56.627V5.346h5.28V8.055H81.583V5.346h5.28V42.363Z" transform="translate(-53.99)" fill="#643d8f"/>
      </g>
    </g>
  </g>
</svg>
