<svg xmlns="http://www.w3.org/2000/svg" width="46.865" height="47" viewBox="0 0 46.865 47">
  <g id="pesquisa-de-lupa" transform="translate(-0.49 -0.001)">
    <path id="Caminho_24818" data-name="Caminho 24818" d="M46.764,40.385,35.512,28.759c-.807-.834-1.815-1.168-2.252-.742s-1.448.09-2.255-.744l-.161-.167a16.855,16.855,0,1,0-2.907,3l.071.074c.805.834,1.105,1.853.666,2.277s-.14,1.444.668,2.276l11.247,11.63a2.1,2.1,0,0,0,2.971.049l3.156-3.054A2.105,2.105,0,0,0,46.764,40.385ZM25.629,25.139a11.65,11.65,0,1,1,0-16.474A11.664,11.664,0,0,1,25.629,25.139Z" transform="translate(0)" fill="#3F3F3F"/>
  </g>
</svg>
