<?xml version="1.0" encoding="utf-8"?>
<!-- Generator: Adobe Illustrator 25.4.1, SVG Export Plug-In . SVG Version: 6.00 Build 0)  -->
<svg version="1.1" id="Camada_1" xmlns="http://www.w3.org/2000/svg" xmlns:xlink="http://www.w3.org/1999/xlink" x="0px" y="0px"
	 viewBox="0 0 57.8 47" style="enable-background:new 0 0 57.8 47;" xml:space="preserve">
<style type="text/css">
	.st0{fill:#FFFFFF;}
</style>
<g id="store" transform="translate(0 -48.003)">
	<g id="Grupo_502" transform="translate(0 48.003)">
		<g id="Grupo_501" transform="translate(0 0)">
			<path id="Caminho_411" class="st0" d="M57.5,13.4l-9-12.7C48.1,0.3,47.6,0,47,0H10.8c-0.6,0-1.1,0.3-1.5,0.8l-9,12.7l-0.3,1
				c0,4,3.2,7.3,7.2,7.3c0,0,0,0,0,0c2.1,0,4.1-0.9,5.4-2.5c2.6,3,7.2,3.3,10.2,0.7c0.2-0.2,0.5-0.4,0.7-0.7c2.6,3,7.2,3.3,10.2,0.7
				c0.2-0.2,0.5-0.4,0.7-0.7c2.6,3,7.2,3.3,10.2,0.7c0.2-0.2,0.5-0.4,0.7-0.7c1.4,1.6,3.3,2.5,5.4,2.5c4,0,7.2-3.3,7.2-7.3
				c0,0,0,0,0,0L57.5,13.4z"/>
		</g>
	</g>
	<g id="Grupo_504" transform="translate(3.616 71.85)">
		<g id="Grupo_503">
			<path id="Caminho_412" class="st0" d="M47,1.5c-1.9,0-3.8-0.5-5.4-1.5c-3.4,1.9-7.5,1.9-10.8,0c-3.4,1.9-7.5,1.9-10.8,0
				C16.5,1.9,12.4,1.9,9,0C6.3,1.5,3,1.8,0,0.8v18.8c0,2,1.6,3.6,3.6,3.6h28.9V5.1h10.8v18.1H47c2,0,3.6-1.6,3.6-3.6V0.8
				C49.5,1.2,48.2,1.4,47,1.5z M21.7,15.9H7.2V5.1h14.5V15.9z"/>
		</g>
	</g>
</g>
</svg>
