<?xml version="1.0" encoding="utf-8"?>
<!-- Generator: Adobe Illustrator 25.4.1, SVG Export Plug-In . SVG Version: 6.00 Build 0)  -->
<svg version="1.1" id="Camada_1" xmlns="http://www.w3.org/2000/svg" xmlns:xlink="http://www.w3.org/1999/xlink" x="0px" y="0px"
	 viewBox="0 0 45 47" style="enable-background:new 0 0 45 47;" xml:space="preserve">
<style type="text/css">
	.st0{fill:#FFFFFF;}
</style>
<g id="tarefa" transform="translate(-8)">
	<g id="Grupo_484" transform="translate(8)">
		<g id="Grupo_483">
			<path id="Caminho_402" class="st0" d="M12.6,0H2C0.9,0,0,0.9,0,2v10.6c0,1.1,0.9,2,2,2l0,0h10.7c1.1,0,2-0.9,2-2V2
				C14.6,0.9,13.7,0,12.6,0z M10.7,10.6H3.9V3.9h6.7V10.6z"/>
		</g>
	</g>
	<g id="Grupo_486" transform="translate(8 32.474)">
		<g id="Grupo_485">
			<path id="Caminho_403" class="st0" d="M12.6,0H2C0.9,0,0,0.9,0,2v10.6c0,1.1,0.9,2,2,2h10.7c1.1,0,2-0.9,2-2V2
				C14.6,0.9,13.7,0,12.6,0z M10.7,10.6H3.9V3.9h6.7L10.7,10.6z"/>
		</g>
	</g>
	<g id="Grupo_488" transform="translate(25.374 2.036)">
		<g id="Grupo_487">
			<path id="Caminho_404" class="st0" d="M25.7,0H2C0.9,0,0,0.9,0,2s0.9,2,2,2h23.8c1.1,0,2-0.9,2-2S26.8,0,25.7,0L25.7,0z"/>
		</g>
	</g>
	<g id="Grupo_490" transform="translate(25.374 8.574)">
		<g id="Grupo_489">
			<path id="Caminho_405" class="st0" d="M25.7,0H2C0.9,0,0,0.9,0,2c0,1.1,0.9,2,2,2h23.8c1.1,0,2-0.9,2-2C27.7,0.9,26.8,0,25.7,0
				L25.7,0z"/>
		</g>
	</g>
	<g id="Grupo_492" transform="translate(8 16.332)">
		<g id="Grupo_491">
			<path id="Caminho_406" class="st0" d="M12.6,0H2C0.9,0,0,0.9,0,2v10.6c0,1.1,0.9,2,2,2h10.7c1.1,0,2-0.9,2-2V2
				C14.6,0.9,13.7,0,12.6,0z M10.7,10.6H3.9V3.9h6.7L10.7,10.6z"/>
		</g>
	</g>
	<g id="Grupo_494" transform="translate(25.374 18.367)">
		<g id="Grupo_493">
			<path id="Caminho_407" class="st0" d="M25.7,0H2C0.9,0,0,0.9,0,2c0,1.1,0.9,2,2,2h23.8c1.1,0,2-0.9,2-2C27.7,0.9,26.8,0,25.7,0
				L25.7,0z"/>
		</g>
	</g>
	<g id="Grupo_496" transform="translate(25.374 24.905)">
		<g id="Grupo_495">
			<path id="Caminho_408" class="st0" d="M25.7,0H2C0.9,0,0,0.9,0,2c0,1.1,0.9,2,2,2h23.8c1.1,0,2-0.9,2-2C27.7,0.9,26.8,0,25.7,0
				L25.7,0z"/>
		</g>
	</g>
	<g id="Grupo_498" transform="translate(25.374 34.51)">
		<g id="Grupo_497">
			<path id="Caminho_409" class="st0" d="M25.7,0H2C0.9,0,0,0.9,0,2s0.9,2,2,2h23.8c1.1,0,2-0.9,2-2S26.8,0,25.7,0L25.7,0z"/>
		</g>
	</g>
	<g id="Grupo_500" transform="translate(25.374 41.048)">
		<g id="Grupo_499">
			<path id="Caminho_410" class="st0" d="M25.7,0H2C0.9,0,0,0.9,0,2s0.9,2,2,2h23.8c1.1,0,2-0.9,2-2S26.8,0,25.7,0L25.7,0z"/>
		</g>
	</g>
</g>
</svg>
