<?xml version="1.0" encoding="utf-8"?>
<!-- Generator: Adobe Illustrator 25.4.1, SVG Export Plug-In . SVG Version: 6.00 Build 0)  -->
<svg version="1.1" id="Camada_1" xmlns="http://www.w3.org/2000/svg" xmlns:xlink="http://www.w3.org/1999/xlink" x="0px" y="0px"
	 viewBox="0 0 48.9 47" style="enable-background:new 0 0 48.9 47;" xml:space="preserve">
<style type="text/css">
	.st0{fill:#FFFFFF;}
</style>
<g id="rede-de-afiliados-de-negocios" transform="translate(0 -0.911)">
	<g id="Layer_1_110_" transform="translate(0 0.911)">
		<g id="Grupo_482">
			<path id="Caminho_395" class="st0" d="M18.3,15.6l-3-2.8c0.4-0.6,0.6-1.4,0.6-2.1c0-2.5-2-4.5-4.4-4.5C9,6.2,7,8.2,7,10.7
				c0,2.5,2,4.5,4.4,4.5c0.8,0,1.7-0.2,2.4-0.7l3,2.8C17.2,16.7,17.7,16.1,18.3,15.6z"/>
			<path id="Caminho_396" class="st0" d="M30.9,15.3l4-6.7c2.3,0.6,4.7-0.7,5.4-3s-0.7-4.7-3-5.4c-2.3-0.6-4.7,0.7-5.4,3
				c-0.4,1.5,0,3.1,1.1,4.3L29,14.1C29.6,14.4,30.3,14.8,30.9,15.3z"/>
			<path id="Caminho_397" class="st0" d="M44.5,20.8c-1.8,0-3.5,1.2-4.1,2.9l-5.5-0.5c0,0,0,0.1,0,0.1c0,0.7-0.1,1.4-0.2,2.1
				l5.5,0.5c0.4,2.4,2.6,4,5,3.6c2.4-0.4,4-2.6,3.6-5C48.5,22.4,46.6,20.9,44.5,20.8L44.5,20.8z"/>
			<path id="Caminho_398" class="st0" d="M29.3,38.2l-1.2-5.4c-0.7,0.2-1.4,0.4-2.2,0.5l1.2,5.4c-2.2,1.1-3,3.8-1.9,5.9
				c1.1,2.2,3.8,3,5.9,1.9c2.2-1.1,3-3.8,1.9-5.9C32.4,39.1,30.9,38.2,29.3,38.2L29.3,38.2z"/>
			<path id="Caminho_399" class="st0" d="M14.9,25.4l-6.8,2.3c-1.3-2-4.1-2.6-6.1-1.3s-2.6,4.1-1.3,6.1s4.1,2.6,6.1,1.3
				c1.2-0.8,2-2.2,2-3.7c0-0.1,0-0.2,0-0.3l6.9-2.3C15.3,26.9,15.1,26.2,14.9,25.4z"/>
			<circle id="Elipse_132" class="st0" cx="24.8" cy="23.3" r="7.6"/>
		</g>
	</g>
</g>
</svg>
