<?xml version="1.0" encoding="utf-8"?>
<!-- Generator: Adobe Illustrator 25.4.1, SVG Export Plug-In . SVG Version: 6.00 Build 0)  -->
<svg version="1.1" id="Camada_1" xmlns="http://www.w3.org/2000/svg" xmlns:xlink="http://www.w3.org/1999/xlink" x="0px" y="0px"
	 viewBox="0 0 46 46" style="enable-background:new 0 0 46 46;" xml:space="preserve">
<style type="text/css">
	.st0{fill:#FFFFFF;}
</style>
<g id="Grupo_47" transform="translate(0.501 0.5)">
	<path id="Caminho_97" class="st0" d="M22.5,0C34.9,0,45,10.1,45,22.5C45,34.9,34.9,45,22.5,45C10.1,45,0,34.9,0,22.5
		c0-0.2,0-0.4,0-0.6C0.3,9.7,10.3,0,22.5,0z M6.7,35.3c0.1-0.2,0.1-0.4,0.2-0.5c1.2-5.2,4.9-9.4,9.9-11.2c0.4-0.2,0.9-0.2,1.3,0.1
		c2.8,1.4,6.1,1.4,8.8,0c0.4-0.2,0.9-0.3,1.3-0.1c4.8,1.8,8.4,5.8,9.7,10.7l0.3,1.1c7.1-8.7,5.7-21.5-3-28.6s-21.5-5.7-28.6,3
		C0.7,17.1,0.7,27.8,6.7,35.3L6.7,35.3z"/>
	<path id="Caminho_98" class="st0" d="M22.5,6.4c4.4,0,8,3.6,8,8s-3.6,8-8,8c-4.4,0-8-3.6-8-8c0,0,0,0,0,0c0-4.4,3.5-8,7.9-8
		C22.4,6.4,22.5,6.4,22.5,6.4z"/>
</g>
</svg>
