<svg xmlns="http://www.w3.org/2000/svg" width="37.632" height="37.614" viewBox="0 0 37.632 37.614">
  <g id="wallet" transform="translate(0 -0.121)">
    <path id="Caminho_24751" data-name="Caminho 24751" d="M35.427,18.137V13.7a4.047,4.047,0,0,0-3.9-4.039V6.939a2.575,2.575,0,0,0-2.573-2.573H21.877l-.915-2.542a2.572,2.572,0,0,0-3.3-1.547L4.81,4.955a2.573,2.573,0,0,0-1.536,3.3l.516,1.409A4.047,4.047,0,0,0,0,13.7V33.693a4.047,4.047,0,0,0,4.043,4.043H31.385a4.047,4.047,0,0,0,4.043-4.043V29.109a2.576,2.576,0,0,0,2.205-2.546v-5.88A2.576,2.576,0,0,0,35.427,18.137Zm0,8.426a.368.368,0,0,1-.368.368H29.18a3.308,3.308,0,0,1,0-6.615h5.88a.368.368,0,0,1,.368.368ZM5.345,7.5a.367.367,0,0,1,.219-.472L18.416,2.349a.368.368,0,0,1,.472.221l.646,1.8h-.5a2.575,2.575,0,0,0-2.573,2.573v2.72H6.136Zm23.982-.56v2.72H18.669V6.939a.368.368,0,0,1,.367-.368h9.923A.368.368,0,0,1,29.327,6.939ZM31.385,35.53H4.043a1.84,1.84,0,0,1-1.838-1.838V13.7a1.84,1.84,0,0,1,1.838-1.838H31.385A1.84,1.84,0,0,1,33.222,13.7v4.41H29.18a5.513,5.513,0,0,0,0,11.025h4.043v4.557A1.84,1.84,0,0,1,31.385,35.53Z" transform="translate(0 0)" fill="#34EF00"/>
    <circle id="Elipse_139" data-name="Elipse 139" cx="1.103" cy="1.103" r="1.103" transform="translate(28.077 22.521)" fill="#34EF00"/>
  </g>
</svg>
